<svg width="1589" height="847" viewBox="0 0 1589 847" fill="none" xmlns="http://www.w3.org/2000/svg">
<rect width="1589" height="847" fill="black"/>
<path d="M793.001 695C795.762 695 798.001 692.538 798.001 689.5C798.001 686.462 795.762 684 793.001 684C790.239 684 788.001 686.462 788.001 689.5C788.001 692.538 790.239 695 793.001 695Z" stroke="url(#paint0_radial_1_111)" stroke-miterlimit="10"/>
<path d="M793.001 595C795.762 595 798.001 592.538 798.001 589.5C798.001 586.462 795.762 584 793.001 584C790.239 584 788.001 586.462 788.001 589.5C788.001 592.538 790.239 595 793.001 595Z" stroke="url(#paint1_radial_1_111)" stroke-miterlimit="10"/>
<path d="M793.001 263C795.762 263 798.001 260.538 798.001 257.5C798.001 254.462 795.762 252 793.001 252C790.239 252 788.001 254.462 788.001 257.5C788.001 260.538 790.239 263 793.001 263Z" stroke="url(#paint2_radial_1_111)" stroke-miterlimit="10"/>
<path d="M793.001 163C795.762 163 798.001 160.538 798.001 157.5C798.001 154.462 795.762 152 793.001 152C790.239 152 788.001 154.462 788.001 157.5C788.001 160.538 790.239 163 793.001 163Z" stroke="url(#paint3_radial_1_111)" stroke-miterlimit="10"/>
<path d="M522.001 423C522.001 425.761 524.463 428 527.501 428C530.538 428 533.001 425.761 533.001 423C533.001 420.239 530.538 418 527.501 418C524.463 418 522.001 420.239 522.001 423Z" stroke="url(#paint4_radial_1_111)" stroke-miterlimit="10"/>
<path d="M622.001 423C622.001 425.761 624.463 428 627.501 428C630.538 428 633.001 425.761 633.001 423C633.001 420.239 630.538 418 627.501 418C624.463 418 622.001 420.239 622.001 423Z" stroke="url(#paint5_radial_1_111)" stroke-miterlimit="10"/>
<path d="M954.001 423C954.001 425.761 956.463 428 959.501 428C962.538 428 965.001 425.761 965.001 423C965.001 420.239 962.538 418 959.501 418C956.463 418 954.001 420.239 954.001 423Z" stroke="url(#paint6_radial_1_111)" stroke-miterlimit="10"/>
<path d="M1054 423C1054 425.761 1056.46 428 1059.5 428C1062.54 428 1065 425.761 1065 423C1065 420.239 1062.54 418 1059.5 418C1056.46 418 1054 420.239 1054 423Z" stroke="url(#paint7_radial_1_111)" stroke-miterlimit="10"/>
<path d="M1058.09 618.729C1058.09 620.823 1059.79 622.521 1061.88 622.521C1063.98 622.521 1065.68 620.823 1065.68 618.729C1065.68 616.634 1063.98 614.936 1061.88 614.936C1059.79 614.936 1058.09 616.634 1058.09 618.729Z" stroke="url(#paint8_radial_1_111)" stroke-miterlimit="10"/>
<path d="M428.219 215L428.717 222.668C428.839 224.612 429.376 226.508 430.294 228.227C431.211 229.946 432.486 231.449 434.034 232.633L514.197 294.363C517.31 296.765 519.876 299.802 521.724 303.272C523.572 306.742 524.659 310.565 524.913 314.488L529.676 388.592" stroke="url(#paint9_radial_1_111)" stroke-miterlimit="10"/>
<path d="M430.587 626.728C430.587 628.822 428.889 630.52 426.794 630.52C424.698 630.52 423 628.822 423 626.728C423 624.633 424.698 622.935 426.794 622.935C428.889 622.935 430.587 624.633 430.587 626.728Z" stroke="url(#paint10_radial_1_111)" stroke-miterlimit="10"/>
<path d="M427 623.443L427.498 615.775C427.62 613.83 428.158 611.935 429.075 610.215C429.992 608.496 431.267 606.994 432.815 605.809L513.117 544.079C516.225 541.675 518.786 538.637 520.628 535.167C522.471 531.698 523.554 527.875 523.805 523.955L528.624 449.796" stroke="url(#paint11_radial_1_111)" stroke-miterlimit="10"/>
<path d="M531.219 215L531.717 222.668C531.839 224.612 532.376 226.508 533.294 228.227C534.211 229.946 535.486 231.449 537.034 232.633L617.197 294.363C620.31 296.765 622.876 299.802 624.724 303.272C626.572 306.742 627.659 310.565 627.913 314.488L632.676 388.592" stroke="url(#paint12_radial_1_111)" stroke-miterlimit="10"/>
<path d="M533.587 626.728C533.587 628.822 531.889 630.52 529.794 630.52C527.698 630.52 526 628.822 526 626.728C526 624.633 527.698 622.935 529.794 622.935C531.889 622.935 533.587 624.633 533.587 626.728Z" stroke="url(#paint13_radial_1_111)" stroke-miterlimit="10"/>
<path d="M530 623.443L530.498 615.775C530.62 613.83 531.158 611.935 532.075 610.215C532.992 608.496 534.267 606.994 535.815 605.809L616.117 544.079C619.225 541.675 621.786 538.637 623.628 535.167C625.471 531.698 626.554 527.875 626.805 523.955L631.624 449.796" stroke="url(#paint14_radial_1_111)" stroke-miterlimit="10"/>
<path d="M1161.46 215L1160.96 222.668C1160.84 224.612 1160.3 226.508 1159.38 228.227C1158.47 229.946 1157.19 231.449 1155.64 232.633L1075.48 294.363C1072.37 296.765 1069.8 299.802 1067.95 303.272C1066.11 306.742 1065.02 310.565 1064.76 314.488L1060 388.592" stroke="url(#paint15_radial_1_111)" stroke-miterlimit="10"/>
<path d="M1159.09 626.729C1159.09 628.823 1160.79 630.521 1162.88 630.521C1164.98 630.521 1166.68 628.823 1166.68 626.729C1166.68 624.634 1164.98 622.936 1162.88 622.936C1160.79 622.936 1159.09 624.634 1159.09 626.729Z" stroke="url(#paint16_radial_1_111)" stroke-miterlimit="10"/>
<path d="M1162.68 623.444L1162.18 615.776C1162.06 613.831 1161.52 611.936 1160.6 610.217C1159.68 608.497 1158.41 606.995 1156.86 605.81L1076.56 544.08C1073.45 541.676 1070.89 538.638 1069.05 535.168C1067.21 531.698 1066.12 527.876 1065.87 523.956L1061.05 449.796" stroke="url(#paint17_radial_1_111)" stroke-miterlimit="10"/>
<path d="M1060.46 219L1059.96 226.668C1059.84 228.612 1059.3 230.508 1058.38 232.227C1057.47 233.946 1056.19 235.449 1054.64 236.633L974.48 298.363C971.367 300.765 968.801 303.802 966.953 307.272C965.105 310.742 964.018 314.565 963.763 318.488L959.001 392.592" stroke="url(#paint18_radial_1_111)" stroke-miterlimit="10"/>
<path d="M1061.68 627.444L1061.18 619.776C1061.06 617.831 1060.52 615.936 1059.6 614.217C1058.68 612.497 1057.41 610.995 1055.86 609.81L975.559 548.08C972.451 545.676 969.891 542.638 968.048 539.168C966.205 535.698 965.122 531.876 964.871 527.956L960.053 453.796" stroke="url(#paint19_radial_1_111)" stroke-miterlimit="10"/>
<g filter="url(#filter0_f_1_111)">
<path fill-rule="evenodd" clip-rule="evenodd" d="M754.599 60.4069C754.599 61.0233 755.45 61.188 755.68 60.6161L756.234 59.2388V102.817C756.234 102.88 756.222 102.943 756.199 103.001L736.757 152.177L734.93 156.661C734.889 156.763 734.864 156.872 734.858 156.982L715.785 205.225C715.716 205.401 715.68 205.588 715.68 205.776L715.68 237.536H716.68L716.68 205.776C716.68 205.713 716.692 205.651 716.715 205.593L734.856 159.706V171.009C734.856 172.106 736.368 172.403 736.782 171.386L752.124 133.739C752.173 133.619 752.198 133.491 752.198 133.362L752.198 119.391C752.198 118.758 751.695 118.392 751.19 118.39L757.129 103.369C757.198 103.193 757.234 103.006 757.234 102.817V56.8779H757.184L757.227 56.7703C757.254 56.7038 757.267 56.6328 757.267 56.5611C757.267 55.9447 756.417 55.78 756.187 56.3519L754.64 60.1977C754.613 60.2642 754.599 60.3352 754.599 60.4069ZM735.856 157.177L737.686 152.549L751.198 119.391L751.198 133.362L735.856 171.009V157.177ZM1062.68 619.411L1063.17 627.078L1062.18 627.143L1061.68 619.475L1061.68 619.473C1061.56 617.6 1061.04 615.774 1060.16 614.118C1059.28 612.462 1058.05 611.015 1056.56 609.874L1056.56 609.873L976.254 548.143L976.253 548.142C973.089 545.695 970.482 542.602 968.606 539.069C966.73 535.537 965.627 531.645 965.371 527.654L960.553 453.495L961.551 453.43L966.369 527.59L966.369 527.59C966.616 531.44 967.679 535.193 969.489 538.6C971.299 542.007 973.813 544.991 976.865 547.351L1057.16 609.08C1058.77 610.307 1060.09 611.865 1061.04 613.648C1061.99 615.43 1062.55 617.395 1062.68 619.41L1062.68 619.411ZM735.856 256.494L751.198 217.687L751.198 231.319L735.856 268.966V256.494ZM752.198 217.348C752.198 216.928 751.977 216.625 751.68 216.469L757.594 201.51C757.686 201.276 757.734 201.026 757.734 200.775V155.134L759.116 151.488C759.158 151.375 759.18 151.255 759.18 151.134V149.608C759.18 148.497 757.639 148.215 757.245 149.254L753.245 159.808C753.202 159.921 753.18 160.041 753.18 160.162V161.688C753.18 162.799 754.722 163.081 755.116 162.042L755.734 160.411L755.734 200.775L715.321 302.998C715.228 303.232 715.18 303.482 715.18 303.734L715.18 326.936C687.59 349.679 670 384.118 670 422.666C670 461.13 687.513 495.504 715 518.248V541.141C715 541.392 715.048 541.642 715.14 541.876L755.553 644.1V684.463L754.935 682.832C754.541 681.793 753 682.075 753 683.186V684.712C753 684.833 753.022 684.953 753.065 685.066L757.065 695.62C757.459 696.659 759 696.377 759 695.266V693.74C759 693.619 758.978 693.499 758.935 693.386L757.553 689.74V644.1C757.553 643.848 757.506 643.598 757.413 643.364L751.499 628.405C751.796 628.249 752.018 627.946 752.018 627.526V613.555C752.018 613.426 751.993 613.298 751.944 613.178L736.602 575.531C736.188 574.514 734.676 574.811 734.676 575.908L734.676 585.851L717 541.141V519.868C726.253 527.208 736.579 533.255 747.704 537.735L755.443 552.464C755.48 552.535 755.5 552.615 755.5 552.696V593.749L754.609 591.602C754.258 590.757 753 591.008 753 591.923C753 592.033 753.022 592.142 753.064 592.244L755.391 597.85C755.421 597.922 755.458 597.987 755.5 598.043V598.666H756.5V598.296C756.781 598.177 757 597.911 757 597.529C757 597.419 756.978 597.31 756.936 597.208L756.5 596.158V552.696C756.5 552.453 756.441 552.214 756.328 551.998L749.13 538.299C763.044 543.702 778.176 546.666 794 546.666C809.2 546.666 823.762 543.931 837.22 538.926L830.093 552.38C829.978 552.597 829.918 552.838 829.918 553.083L829.918 597.648C829.853 597.783 829.82 597.93 829.82 598.08V598.33C829.82 598.497 829.856 598.646 829.918 598.775V598.964H830.039C830.447 599.46 831.317 599.493 831.694 598.816L835.053 592.775C835.136 592.626 835.179 592.459 835.179 592.289V592.04C835.179 591.008 833.807 590.652 833.306 591.554L830.918 595.846L830.918 553.083C830.918 553.001 830.938 552.921 830.976 552.849L838.636 538.39C849.92 534.034 860.408 528.076 869.82 520.793V541.599L852.144 586.31V576.367C852.144 575.269 850.632 574.973 850.218 575.989L834.876 613.637C834.827 613.757 834.802 613.885 834.802 614.014V627.985C834.802 628.405 835.023 628.708 835.32 628.864L829.406 643.823C829.314 644.057 829.266 644.307 829.266 644.558L829.266 690.199L827.884 693.845C827.842 693.958 827.82 694.078 827.82 694.199V695.725C827.82 696.836 829.361 697.118 829.755 696.079L833.755 685.525C833.798 685.412 833.82 685.292 833.82 685.17V683.645C833.82 682.534 832.278 682.251 831.884 683.291L831.266 684.922L831.266 644.558L871.68 542.335C871.772 542.1 871.82 541.851 871.82 541.599V519.213C899.985 496.482 918 461.678 918 422.666C918 383.738 900.062 349 872 326.266V304.192C872 303.941 871.953 303.691 871.86 303.457L831.447 201.233V160.87L832.065 162.501C832.459 163.54 834 163.258 834 162.147V160.621C834 160.5 833.978 160.38 833.935 160.267L829.935 149.713C829.541 148.673 828 148.956 828 150.067V151.593C828 151.714 828.022 151.834 828.065 151.947L829.447 155.593V201.233C829.447 201.485 829.494 201.734 829.587 201.969L835.501 216.927C835.204 217.084 834.982 217.387 834.982 217.807V231.777C834.982 231.907 835.007 232.035 835.056 232.155L850.398 269.802C850.812 270.818 852.324 270.522 852.324 269.425V259.482L870 304.192V324.68C860.653 317.419 850.239 311.467 839.033 307.097L831.557 292.869C831.52 292.798 831.5 292.718 831.5 292.637V251.584L832.391 253.731C832.742 254.576 834 254.325 834 253.41C834 253.3 833.978 253.191 833.936 253.089L831.609 247.483C831.579 247.411 831.542 247.346 831.5 247.289V246.666H830.5V247.037C830.219 247.156 830 247.422 830 247.804C830 247.914 830.022 248.023 830.064 248.124L830.5 249.175V292.637C830.5 292.88 830.559 293.119 830.672 293.334L837.619 306.556C824.05 301.456 809.351 298.666 794 298.666C778.448 298.666 763.565 301.529 749.849 306.757C749.776 306.731 749.7 306.712 749.623 306.703L756.907 292.952C757.022 292.736 757.082 292.495 757.082 292.25L757.082 247.685C757.147 247.55 757.18 247.402 757.18 247.252V247.003C757.18 246.836 757.144 246.687 757.082 246.558V246.369H756.961C756.553 245.872 755.683 245.839 755.307 246.517L751.947 252.558C751.864 252.706 751.821 252.874 751.821 253.044V253.293C751.821 254.325 753.193 254.681 753.694 253.779L756.082 249.487L756.082 292.25C756.082 292.332 756.062 292.412 756.024 292.484L748.102 307.438C736.898 311.905 726.498 317.959 717.18 325.322L717.18 303.734L734.856 259.023V268.966C734.856 270.063 736.368 270.36 736.782 269.343L752.124 231.696C752.173 231.576 752.198 231.448 752.198 231.319L752.198 217.348ZM715.18 334.85V335.494H717.18V333.094C725.136 326.264 734.012 320.477 743.597 315.942L734.991 332.188L727.389 346.109C727.309 346.256 727.267 346.421 727.267 346.588V346.769L701.916 394.623C701.802 394.839 701.742 395.081 701.742 395.325L701.742 417.666H701.5L701.5 449.431C701.5 449.674 701.559 449.913 701.672 450.128L727 498.332V498.424C727 498.591 727.042 498.757 727.123 498.904L731.474 506.847L743.227 529.215C733.711 524.672 724.9 518.893 717 512.084V509.381H715V510.32C691.053 488.724 676 457.453 676 422.666C676 387.793 691.128 356.452 715.18 334.85ZM745.427 530.238C746.608 530.771 747.799 531.287 749 531.782V521.909L728 483.573V498.085L732.356 506.375L745.427 530.238ZM785.871 540.294C773.675 536.772 764.756 525.525 764.756 512.195C764.756 510.566 764.889 508.968 765.145 507.412C751.5 502.712 739.363 494.772 729.654 484.511L749.877 521.429C749.958 521.576 750 521.742 750 521.909V532.19C761.227 536.704 773.308 539.543 785.933 540.395C785.912 540.361 785.892 540.328 785.871 540.294ZM800.749 538.596C800.29 538.713 799.826 538.818 799.359 538.912C800.016 537.906 800.399 536.705 800.399 535.414C800.399 535.136 800.381 534.863 800.347 534.595C800.694 534.496 801.039 534.39 801.379 534.276C801.435 534.643 801.464 535.019 801.464 535.402C801.464 536.545 801.207 537.627 800.749 538.596ZM787.601 535.414C787.601 536.705 787.984 537.906 788.641 538.912C788.164 538.816 787.692 538.709 787.224 538.589C786.768 537.622 786.512 536.542 786.512 535.402C786.512 535.017 786.542 534.638 786.598 534.269C786.946 534.385 787.298 534.494 787.653 534.595C787.619 534.863 787.601 535.136 787.601 535.414ZM802.071 540.35L802.1 540.302C814.311 536.79 823.244 525.535 823.244 512.195C823.244 510.566 823.111 508.968 822.854 507.412C835.247 503.144 846.395 496.203 855.611 487.279L836.618 522.061C836.538 522.207 836.496 522.372 836.496 522.54L836.496 532.783C825.689 536.956 814.114 539.584 802.042 540.397L802.071 540.35ZM803.14 537.867C803.351 537.081 803.464 536.255 803.464 535.402C803.464 534.767 803.401 534.146 803.282 533.546C811.518 529.961 817.276 521.75 817.276 512.195C817.276 511.173 817.21 510.167 817.082 509.18C818.377 508.832 819.66 508.455 820.93 508.05C821.137 509.401 821.244 510.785 821.244 512.195C821.244 524.035 813.691 534.111 803.14 537.867ZM798.167 526.895C804.578 525.081 809.276 519.187 809.276 512.195C809.276 511.764 809.258 511.337 809.223 510.915C804.277 511.771 799.191 512.218 794 512.218C788.809 512.218 783.723 511.771 778.777 510.915C778.742 511.337 778.724 511.764 778.724 512.195C778.724 519.181 783.414 525.072 789.818 526.891C791.076 526.273 792.492 525.926 793.988 525.926C795.488 525.926 796.906 526.275 798.167 526.895ZM784.834 537.858C784.624 537.075 784.512 536.251 784.512 535.402C784.512 534.763 784.576 534.139 784.696 533.536C776.472 529.946 770.724 521.742 770.724 512.195C770.724 511.173 770.79 510.167 770.918 509.18C769.623 508.832 768.34 508.455 767.07 508.049C766.863 509.401 766.756 510.785 766.756 512.195C766.756 524.025 774.297 534.094 784.834 537.858ZM837.496 522.54L858.146 484.722C858.326 484.534 858.504 484.345 858.681 484.155L858.733 484.1V498.316L851.128 512.671L841.204 530.846C839.978 531.382 838.742 531.897 837.496 532.391L837.496 522.54ZM882.572 423.647C882.572 446.552 873.877 467.427 859.608 483.15C859.687 483.29 859.733 483.457 859.733 483.647V496.428L884.2 450.242C884.238 450.169 884.258 450.089 884.258 450.008V418.306H884.5V395.902C884.5 395.854 884.493 395.806 884.48 395.761C884.472 395.737 884.464 395.713 884.453 395.69L884.448 395.68L884.443 395.67L860 349.151V361.759C860 362.794 858.62 363.148 858.123 362.24L837.123 323.904C837.042 323.757 837 323.591 837 323.423V312.746C823.676 307.53 809.173 304.666 794 304.666C778.639 304.666 763.964 307.602 750.504 312.941V322.793C750.504 322.961 750.462 323.125 750.382 323.272L729.145 362.165C728.648 363.074 727.267 362.721 727.267 361.686L727.267 348.905L702.8 395.091C702.762 395.163 702.742 395.244 702.742 395.325L702.742 427.027H702.5V449.431C702.5 449.512 702.52 449.591 702.557 449.663L727 496.182V483.573C727 483.002 727.42 482.639 727.88 482.58C713.916 466.924 705.429 446.276 705.429 423.647C705.429 374.73 745.084 335.075 794 335.075C842.917 335.075 882.572 374.73 882.572 423.647ZM843.076 530.009C852.767 525.571 861.753 519.859 869.82 513.088V509.839H871.82V511.371C896.452 489.744 912 458.021 912 422.666C912 387.398 896.527 355.744 872 334.121V335.952H870V332.397C861.989 325.645 853.068 319.941 843.445 315.494L855.526 338.485L859.877 346.429C859.958 346.576 860 346.741 860 346.909V347.001L885.328 395.204C885.441 395.42 885.5 395.659 885.5 395.902V427.666H885.258V450.008C885.258 450.252 885.198 450.493 885.084 450.71L859.733 498.564V498.744C859.733 498.912 859.691 499.077 859.611 499.224L852.009 513.145L843.076 530.009ZM841.25 314.507C840.175 314.037 839.092 313.582 838 313.143V323.423L859 361.759V347.248L854.645 338.958L841.25 314.507ZM749.504 313.344C748.149 313.896 746.806 314.473 745.476 315.073L735.872 332.661L728.267 347.017L728.267 361.686L749.504 322.793V313.344ZM706.429 423.647C706.429 461.969 731.045 494.542 765.327 506.416C768.009 493.033 779.827 482.951 794 482.951C808.173 482.951 819.991 493.033 822.673 506.416C835.971 501.81 847.815 494.09 857.332 484.127L857.855 483.168C858.051 482.81 858.383 482.648 858.715 482.646C872.913 467.081 881.572 446.375 881.572 423.647C881.572 375.282 842.365 336.075 794 336.075C745.636 336.075 706.429 375.282 706.429 423.647ZM771.068 508.185C769.78 507.836 768.504 507.459 767.24 507.054C769.644 494.466 780.711 484.951 794 484.951C807.289 484.951 818.356 494.466 820.759 507.054C819.496 507.459 818.219 507.836 816.931 508.185C815.031 497.241 805.487 488.919 794 488.919C782.513 488.919 772.969 497.241 771.068 508.185ZM794 496.919C801.663 496.919 808.009 502.562 809.107 509.92C804.2 510.773 799.152 511.218 794 511.218C788.848 511.218 783.8 510.773 778.893 509.92C779.991 502.562 786.337 496.919 794 496.919ZM758.18 151.134L756.778 154.835H756.199L758.18 149.608V151.134ZM754.18 160.162L755.734 156.064V157.589L754.18 161.688V160.162ZM756.082 247.18V247.429L752.821 253.293V253.044L756.082 247.18ZM716.535 639.281L734.676 685.168L734.676 673.865C734.676 672.768 736.188 672.471 736.602 673.488L751.944 711.135C751.993 711.255 752.018 711.383 752.018 711.512V725.483C752.018 726.116 751.515 726.482 751.01 726.484L756.948 741.505C757.018 741.681 757.053 741.868 757.053 742.057V787.996H757.003L757.046 788.104C757.073 788.17 757.087 788.241 757.087 788.313C757.087 788.929 756.237 789.094 756.007 788.522L754.459 784.676C754.433 784.61 754.419 784.539 754.419 784.467C754.419 783.851 755.269 783.686 755.499 784.258L756.053 785.635V742.057C756.053 741.994 756.041 741.931 756.018 741.873L736.576 692.694L734.75 688.213C734.708 688.111 734.684 688.002 734.678 687.892L715.605 639.649C715.536 639.474 715.5 639.286 715.5 639.098V607.338H716.5V639.098C716.5 639.161 716.512 639.223 716.535 639.281ZM735.676 673.865L735.676 687.698L737.504 692.322L751.018 725.483L751.018 711.512L735.676 673.865ZM751.018 627.187L735.676 588.38L735.676 575.908L751.018 613.555V627.187ZM755.553 687.285L754 683.186V684.712L755.553 688.81V687.285ZM756.019 690.039H756.597L758 693.74V695.266L756.019 690.039ZM849.315 692.782L851.144 688.156L851.144 674.324L835.802 711.971L835.802 725.942L849.315 692.782ZM835.81 726.943C835.305 726.941 834.802 726.575 834.802 725.942V711.971C834.802 711.842 834.827 711.714 834.876 711.594L850.218 673.947C850.632 672.93 852.144 673.227 852.144 674.324L852.144 685.627L870.285 639.74C870.308 639.682 870.32 639.619 870.32 639.556V607.796H871.32V639.556C871.32 639.745 871.284 639.932 871.215 640.108L852.142 688.351C852.136 688.461 852.111 688.569 852.07 688.672L850.243 693.154L830.801 742.332C830.79 742.359 830.782 742.388 830.776 742.417C830.773 742.432 830.771 742.448 830.769 742.464C830.767 742.481 830.766 742.498 830.766 742.516L830.766 786.094L831.32 784.717C831.55 784.145 832.401 784.309 832.401 784.926C832.401 784.998 832.387 785.069 832.36 785.135L830.813 788.981C830.583 789.553 829.733 789.388 829.733 788.772L829.733 788.761L829.733 788.747C829.734 788.722 829.737 788.696 829.742 788.671C829.749 788.634 829.759 788.598 829.773 788.563L829.816 788.455H829.766L829.766 742.516C829.766 742.327 829.802 742.14 829.871 741.964L835.81 726.943ZM851.144 588.839L835.802 627.646V614.014L851.144 576.367V588.839ZM828.82 694.199L830.222 690.498H830.801L828.82 695.725V694.199ZM831.266 689.269V687.744L832.82 683.645V685.17L831.266 689.269ZM830.918 598.153L834.179 592.289V592.04L830.918 597.903V598.153ZM851.324 157.635L849.496 153.012L835.982 119.85V133.82L851.324 171.468V157.635ZM834.982 119.85C834.982 119.217 835.485 118.85 835.99 118.849L830.052 103.828C829.982 103.652 829.947 103.465 829.947 103.276L829.947 57.3366H829.997L829.954 57.229C829.927 57.1625 829.913 57.0915 829.913 57.0199C829.913 56.4034 830.763 56.2388 830.993 56.8107L832.541 60.6565C832.567 60.723 832.581 60.794 832.581 60.8657C832.581 61.4821 831.731 61.6467 831.501 61.0748L830.947 59.6975L830.947 103.276C830.947 103.339 830.959 103.401 830.982 103.46L850.425 152.64L852.25 157.12C852.292 157.222 852.316 157.331 852.323 157.441L871.395 205.684C871.464 205.859 871.5 206.046 871.5 206.235V237.995H870.5V206.235C870.5 206.172 870.488 206.11 870.465 206.051L852.324 160.165V171.468C852.324 172.565 850.812 172.861 850.398 171.845L835.056 134.198C835.007 134.078 834.982 133.95 834.982 133.82V119.85ZM835.982 218.146L851.324 256.952V269.425L835.982 231.777V218.146ZM830.403 155.294H830.981L829 150.067V151.593L830.403 155.294ZM831.447 158.048L833 162.147V160.621L831.447 156.522V158.048Z" fill="url(#paint20_radial_1_111)"/>
</g>
<path d="M735.356 171.343L735.356 157.372C735.356 157.307 735.369 157.243 735.393 157.184L750.735 119.536C750.942 119.028 751.698 119.176 751.698 119.725L751.698 133.695C751.698 133.76 751.685 133.824 751.661 133.884L736.319 171.531C736.112 172.039 735.357 171.891 735.356 171.343Z" stroke="url(#paint21_radial_1_111)"/>
<path d="M755.099 60.7406C755.099 60.733 755.101 60.7252 755.103 60.7182L756.651 56.8725C756.658 56.855 756.664 56.8468 756.667 56.8441C756.669 56.8413 756.672 56.8396 756.675 56.8383C756.681 56.8352 756.697 56.8311 756.719 56.8354C756.741 56.8397 756.754 56.8496 756.759 56.8549C756.76 56.857 756.762 56.8592 756.763 56.8627C756.765 56.8662 756.767 56.8762 756.767 56.8949C756.767 56.9026 756.766 56.9103 756.763 56.9174L755.216 60.7631C755.209 60.7804 755.203 60.7887 755.2 60.7914C755.197 60.7941 755.195 60.795 755.192 60.7963C755.186 60.7994 755.17 60.8045 755.148 60.8002C755.126 60.7959 755.113 60.7859 755.108 60.7807C755.106 60.7785 755.105 60.7754 755.103 60.7719C755.102 60.768 755.099 60.7584 755.099 60.7406Z" stroke="url(#paint22_radial_1_111)"/>
<path d="M716.18 237.87L716.18 206.11C716.18 205.984 716.204 205.859 716.25 205.742L756.664 103.519C756.71 103.401 756.734 103.277 756.734 103.151L756.734 57.2115" stroke="url(#paint23_radial_1_111)"/>
<path d="M735.356 269.3L735.356 255.329C735.356 255.265 735.369 255.2 735.393 255.141L750.735 217.493C750.942 216.985 751.698 217.133 751.698 217.682L751.698 231.652C751.698 231.717 751.685 231.781 751.661 231.841L736.319 269.488C736.112 269.996 735.356 269.848 735.356 269.3Z" stroke="url(#paint24_radial_1_111)"/>
<path d="M753.68 162.022L753.68 160.496C753.68 160.436 753.691 160.375 753.713 160.319L757.713 149.765C757.91 149.245 758.68 149.386 758.68 149.942L758.68 151.467C758.68 151.528 758.67 151.588 758.648 151.645L754.648 162.198C754.451 162.718 753.681 162.577 753.68 162.022Z" stroke="url(#paint25_radial_1_111)"/>
<path d="M716.18 335.827L716.18 304.067C716.18 303.941 716.204 303.817 716.25 303.699L756.664 201.476C756.71 201.359 756.734 201.234 756.734 201.108L756.734 155.169" stroke="url(#paint26_radial_1_111)" stroke-width="2"/>
<path d="M727.767 362.019L727.767 346.922C727.767 346.839 727.788 346.756 727.828 346.682L749.066 307.79C749.314 307.335 750.004 307.512 750.004 308.03L750.004 323.126C750.004 323.21 749.984 323.293 749.944 323.367L728.705 362.258C728.457 362.713 727.767 362.537 727.767 362.019Z" stroke="url(#paint27_radial_1_111)"/>
<path d="M752.321 253.626L752.321 253.377C752.321 253.292 752.343 253.208 752.384 253.134L755.743 247.094C755.994 246.643 756.681 246.821 756.681 247.337L756.681 247.586C756.681 247.671 756.659 247.755 756.617 247.829L753.257 253.869C753.022 254.292 752.405 254.162 752.328 253.719L752.321 253.626Z" stroke="url(#paint28_radial_1_111)"/>
<path d="M702.242 427.361L702.242 395.659C702.242 395.496 702.282 395.335 702.358 395.191L756.466 293.052C756.542 292.908 756.582 292.747 756.582 292.584L756.582 246.702" stroke="url(#paint29_radial_1_111)"/>
<path d="M735.176 674.199L735.176 688.169C735.176 688.234 735.189 688.298 735.213 688.358L750.555 726.005C750.762 726.513 751.518 726.365 751.518 725.817L751.518 711.846C751.518 711.781 751.505 711.717 751.481 711.658L736.139 674.01C735.932 673.502 735.176 673.65 735.176 674.199Z" stroke="url(#paint30_radial_1_111)"/>
<path d="M754.919 784.801C754.919 784.808 754.92 784.816 754.923 784.823L756.471 788.669C756.478 788.686 756.484 788.694 756.486 788.697C756.489 788.7 756.492 788.702 756.494 788.703C756.501 788.706 756.516 788.71 756.538 788.706C756.56 788.702 756.573 788.692 756.578 788.686C756.58 788.684 756.582 788.682 756.583 788.679C756.584 788.675 756.587 788.665 756.587 788.646C756.587 788.639 756.586 788.631 756.583 788.624L755.035 784.778C755.028 784.761 755.022 784.753 755.02 784.75C755.017 784.747 755.014 784.746 755.012 784.745C755.005 784.742 754.99 784.737 754.968 784.741C754.946 784.745 754.932 784.755 754.928 784.761C754.926 784.763 754.924 784.766 754.923 784.769C754.921 784.773 754.919 784.783 754.919 784.801Z" stroke="url(#paint31_radial_1_111)"/>
<path d="M716 607.671L716 639.431C716 639.557 716.024 639.682 716.07 639.799L756.483 742.023C756.53 742.14 756.553 742.264 756.553 742.39L756.553 788.33" stroke="url(#paint32_radial_1_111)"/>
<path d="M735.176 576.241L735.176 590.212C735.176 590.277 735.189 590.341 735.213 590.401L750.555 628.048C750.762 628.556 751.518 628.408 751.518 627.86L751.518 613.889C751.518 613.824 751.505 613.76 751.481 613.7L736.139 576.053C735.932 575.545 735.176 575.693 735.176 576.241Z" stroke="url(#paint33_radial_1_111)"/>
<path d="M753.5 683.52L753.5 685.045C753.5 685.105 753.511 685.166 753.532 685.223L757.532 695.776C757.729 696.296 758.5 696.155 758.5 695.6L758.5 694.074C758.5 694.014 758.489 693.953 758.468 693.896L754.468 683.343C754.271 682.823 753.5 682.964 753.5 683.52Z" stroke="url(#paint34_radial_1_111)"/>
<path d="M716 509.714L716 541.474C716 541.6 716.024 541.725 716.07 541.842L756.483 644.065C756.53 644.183 756.553 644.307 756.553 644.433L756.553 690.372" stroke="url(#paint35_radial_1_111)" stroke-width="2"/>
<path d="M727.5 483.907L727.5 498.757C727.5 498.841 727.521 498.924 727.562 498.997L748.562 537.333C748.81 537.787 749.5 537.61 749.5 537.093L749.5 522.243C749.5 522.159 749.479 522.077 749.438 522.003L728.438 483.667C728.19 483.213 727.5 483.39 727.5 483.907Z" stroke="url(#paint36_radial_1_111)"/>
<path d="M753.5 592.257C753.5 592.301 753.508 592.345 753.525 592.386L755.852 597.991C755.994 598.331 756.5 598.23 756.5 597.862C756.5 597.818 756.491 597.774 756.475 597.733L754.147 592.128C754.006 591.788 753.5 591.889 753.5 592.257Z" stroke="url(#paint37_radial_1_111)"/>
<path d="M702 418L702 449.764C702 449.926 702.039 450.086 702.115 450.229L755.885 552.565C755.961 552.708 756 552.868 756 553.03L756 599" stroke="url(#paint38_radial_1_111)"/>
<path d="M851.644 674.657L851.644 688.628C851.644 688.693 851.631 688.757 851.607 688.816L836.265 726.464C836.058 726.972 835.302 726.824 835.302 726.275L835.302 712.305C835.302 712.24 835.315 712.176 835.339 712.116L850.681 674.469C850.888 673.961 851.643 674.109 851.644 674.657Z" stroke="url(#paint39_radial_1_111)"/>
<path d="M831.901 785.259C831.901 785.267 831.899 785.275 831.897 785.282L830.349 789.128C830.342 789.145 830.336 789.153 830.333 789.156C830.331 789.159 830.328 789.16 830.325 789.162C830.319 789.165 830.303 789.169 830.281 789.165C830.259 789.16 830.246 789.15 830.241 789.145C830.24 789.143 830.238 789.141 830.237 789.137C830.235 789.134 830.233 789.124 830.233 789.105C830.233 789.097 830.234 789.09 830.237 789.083L831.784 785.237C831.791 785.22 831.798 785.211 831.8 785.209C831.803 785.206 831.805 785.205 831.808 785.204C831.814 785.201 831.83 785.196 831.852 785.2C831.874 785.204 831.887 785.214 831.892 785.219C831.894 785.221 831.895 785.225 831.897 785.228C831.898 785.232 831.901 785.242 831.901 785.259Z" stroke="url(#paint40_radial_1_111)"/>
<path d="M870.82 608.13L870.82 639.89C870.82 640.016 870.796 640.141 870.75 640.258L830.336 742.481C830.29 742.599 830.266 742.723 830.266 742.849L830.266 788.789" stroke="url(#paint41_radial_1_111)"/>
<path d="M851.644 576.7L851.644 590.671C851.644 590.735 851.631 590.799 851.607 590.859L836.265 628.507C836.058 629.015 835.302 628.867 835.302 628.318L835.302 614.348C835.302 614.283 835.315 614.219 835.339 614.159L850.681 576.512C850.888 576.004 851.643 576.152 851.644 576.7Z" stroke="url(#paint42_radial_1_111)"/>
<path d="M833.32 683.978L833.32 685.504C833.32 685.564 833.309 685.625 833.287 685.681L829.287 696.235C829.09 696.755 828.32 696.614 828.32 696.058L828.32 694.533C828.32 694.472 828.33 694.412 828.352 694.355L832.352 683.802C832.549 683.282 833.319 683.423 833.32 683.978Z" stroke="url(#paint43_radial_1_111)"/>
<path d="M870.82 510.173L870.82 541.933C870.82 542.059 870.796 542.183 870.75 542.301L830.336 644.524C830.29 644.641 830.266 644.766 830.266 644.892L830.266 690.831" stroke="url(#paint44_radial_1_111)" stroke-width="2"/>
<path d="M859.233 483.981L859.233 499.078C859.233 499.161 859.212 499.244 859.172 499.318L837.934 538.21C837.686 538.665 836.996 538.488 836.996 537.97L836.996 522.874C836.996 522.79 837.016 522.707 837.056 522.633L858.295 483.742C858.543 483.287 859.233 483.463 859.233 483.981Z" stroke="url(#paint45_radial_1_111)"/>
<path d="M834.679 592.374L834.679 592.623C834.679 592.708 834.657 592.792 834.616 592.866L831.257 598.906C831.006 599.357 830.319 599.179 830.319 598.663L830.319 598.414C830.319 598.329 830.341 598.245 830.383 598.171L833.743 592.131C833.978 591.708 834.596 591.838 834.672 592.281L834.679 592.374Z" stroke="url(#paint46_radial_1_111)"/>
<path d="M884.758 418.639L884.758 450.341C884.758 450.504 884.718 450.665 884.642 450.809L830.534 552.948C830.458 553.092 830.418 553.253 830.418 553.416L830.418 599.298" stroke="url(#paint47_radial_1_111)"/>
<path d="M851.824 171.801L851.824 157.831C851.824 157.766 851.811 157.702 851.787 157.642L836.445 119.995C836.238 119.487 835.482 119.635 835.482 120.183L835.482 134.154C835.482 134.219 835.495 134.283 835.519 134.342L850.861 171.99C851.068 172.498 851.824 172.35 851.824 171.801Z" stroke="url(#paint48_radial_1_111)"/>
<path d="M832.081 61.1994C832.081 61.1918 832.08 61.184 832.077 61.1769L830.529 57.3312C830.522 57.3138 830.516 57.3056 830.514 57.3029C830.511 57.3001 830.509 57.2983 830.506 57.2971C830.499 57.2939 830.484 57.2899 830.462 57.2941C830.44 57.2984 830.427 57.3084 830.422 57.3137C830.42 57.3158 830.418 57.318 830.417 57.3215C830.416 57.3249 830.413 57.335 830.413 57.3537C830.413 57.3613 830.414 57.3691 830.417 57.3762L831.965 61.2219C831.972 61.2392 831.978 61.2475 831.981 61.2502C831.983 61.2529 831.986 61.2538 831.988 61.2551C831.995 61.2582 832.01 61.2632 832.032 61.259C832.054 61.2547 832.068 61.2447 832.072 61.2394C832.074 61.2373 832.076 61.2342 832.077 61.2307C832.079 61.2268 832.081 61.2172 832.081 61.1994Z" stroke="url(#paint49_radial_1_111)"/>
<path d="M871 238.329L871 206.569C871 206.443 870.976 206.318 870.93 206.201L830.517 103.977C830.47 103.86 830.447 103.736 830.447 103.61L830.447 57.6702" stroke="url(#paint50_radial_1_111)"/>
<path d="M851.824 269.759L851.824 255.788C851.824 255.723 851.811 255.659 851.787 255.599L836.445 217.952C836.238 217.444 835.482 217.592 835.482 218.14L835.482 232.111C835.482 232.176 835.495 232.24 835.519 232.3L850.861 269.947C851.068 270.455 851.824 270.307 851.824 269.759Z" stroke="url(#paint51_radial_1_111)"/>
<path d="M833.5 162.48L833.5 160.955C833.5 160.895 833.489 160.834 833.468 160.777L829.468 150.224C829.271 149.704 828.5 149.845 828.5 150.4L828.5 151.926C828.5 151.986 828.511 152.047 828.532 152.104L832.532 162.657C832.729 163.177 833.5 163.036 833.5 162.48Z" stroke="url(#paint52_radial_1_111)"/>
<path d="M871 336.286L871 304.526C871 304.4 870.976 304.275 870.93 304.158L830.517 201.935C830.47 201.817 830.447 201.693 830.447 201.567L830.447 155.627" stroke="url(#paint53_radial_1_111)" stroke-width="2"/>
<path d="M859.5 362.093L859.5 347.243C859.5 347.159 859.479 347.076 859.439 347.003L838.439 308.667C838.19 308.213 837.5 308.39 837.5 308.907L837.5 323.757C837.5 323.841 837.521 323.923 837.562 323.997L858.562 362.333C858.81 362.787 859.5 362.61 859.5 362.093Z" stroke="url(#paint54_radial_1_111)"/>
<path d="M833.5 253.743C833.5 253.699 833.492 253.655 833.475 253.614L831.148 248.009C831.006 247.669 830.5 247.77 830.5 248.138C830.5 248.182 830.509 248.226 830.525 248.267L832.853 253.872C832.994 254.212 833.5 254.111 833.5 253.743Z" stroke="url(#paint55_radial_1_111)"/>
<path d="M885 428L885 396.236C885 396.074 884.961 395.914 884.885 395.771L831.115 293.435C831.039 293.292 831 293.132 831 292.97L831 247" stroke="url(#paint56_radial_1_111)"/>
<circle cx="794" cy="512.528" r="28.2437" stroke="url(#paint57_radial_1_111)" stroke-width="2"/>
<circle cx="794" cy="512.528" r="19.2756" stroke="url(#paint58_radial_1_111)" stroke-width="8"/>
<circle cx="794" cy="423" r="121" stroke="url(#paint59_radial_1_111)" stroke-width="6"/>
<circle cx="794" cy="423.98" r="88.0714" stroke="url(#paint60_radial_1_111)"/>
<circle cx="794" cy="423" r="121" stroke="url(#paint61_radial_1_111)" stroke-width="6"/>
<circle cx="794" cy="423.98" r="88.0714" stroke="url(#paint62_radial_1_111)"/>
<circle cx="793.988" cy="535.735" r="8.47563" stroke="url(#paint63_radial_1_111)" stroke-width="2"/>
<circle cx="794" cy="535.747" r="6.39858" fill="url(#paint64_radial_1_111)"/>
<g style="mix-blend-mode:overlay">
<circle cx="793.984" cy="535.732" r="5.99013" fill="url(#paint65_radial_1_111)"/>
</g>
<rect x="107.5" y="28.5" width="1374" height="788" rx="15.5" stroke="url(#paint66_radial_1_111)"/>
<defs>
<filter id="filter0_f_1_111" x="660" y="46" width="413.175" height="753.333" filterUnits="userSpaceOnUse" color-interpolation-filters="sRGB">
<feFlood flood-opacity="0" result="BackgroundImageFix"/>
<feBlend mode="normal" in="SourceGraphic" in2="BackgroundImageFix" result="shape"/>
<feGaussianBlur stdDeviation="5" result="effect1_foregroundBlur_1_111"/>
</filter>
<radialGradient id="paint0_radial_1_111" cx="0" cy="0" r="1" gradientUnits="userSpaceOnUse" gradientTransform="translate(793.016 689.893) rotate(90) scale(8.97368 122.966)">
<stop stop-color="#EC4951" stop-opacity="0"/>
<stop offset="0.172108" stop-color="#E95457"/>
<stop offset="0.495676" stop-color="#C9140E"/>
<stop offset="0.812641" stop-color="#A91253"/>
<stop offset="1" stop-color="#ECA849" stop-opacity="0"/>
</radialGradient>
<radialGradient id="paint1_radial_1_111" cx="0" cy="0" r="1" gradientUnits="userSpaceOnUse" gradientTransform="translate(793.016 589.893) rotate(90) scale(8.97368 122.966)">
<stop stop-color="#EC4951" stop-opacity="0"/>
<stop offset="0.172108" stop-color="#E95457"/>
<stop offset="0.495676" stop-color="#C9140E"/>
<stop offset="0.812641" stop-color="#A91253"/>
<stop offset="1" stop-color="#ECA849" stop-opacity="0"/>
</radialGradient>
<radialGradient id="paint2_radial_1_111" cx="0" cy="0" r="1" gradientUnits="userSpaceOnUse" gradientTransform="translate(793.016 257.893) rotate(90) scale(8.97368 122.966)">
<stop stop-color="#EC4951" stop-opacity="0"/>
<stop offset="0.172108" stop-color="#E95457"/>
<stop offset="0.495676" stop-color="#C9140E"/>
<stop offset="0.812641" stop-color="#A91253"/>
<stop offset="1" stop-color="#ECA849" stop-opacity="0"/>
</radialGradient>
<radialGradient id="paint3_radial_1_111" cx="0" cy="0" r="1" gradientUnits="userSpaceOnUse" gradientTransform="translate(793.016 157.893) rotate(90) scale(8.97368 122.966)">
<stop stop-color="#EC4951" stop-opacity="0"/>
<stop offset="0.172108" stop-color="#E95457"/>
<stop offset="0.495676" stop-color="#C9140E"/>
<stop offset="0.812641" stop-color="#A91253"/>
<stop offset="1" stop-color="#ECA849" stop-opacity="0"/>
</radialGradient>
<radialGradient id="paint4_radial_1_111" cx="0" cy="0" r="1" gradientUnits="userSpaceOnUse" gradientTransform="translate(527.108 423.016) rotate(-180) scale(8.97368 122.966)">
<stop stop-color="#EC4951" stop-opacity="0"/>
<stop offset="0.172108" stop-color="#E95457"/>
<stop offset="0.495676" stop-color="#C9140E"/>
<stop offset="0.812641" stop-color="#A91253"/>
<stop offset="1" stop-color="#ECA849" stop-opacity="0"/>
</radialGradient>
<radialGradient id="paint5_radial_1_111" cx="0" cy="0" r="1" gradientUnits="userSpaceOnUse" gradientTransform="translate(627.108 423.016) rotate(-180) scale(8.97368 122.966)">
<stop stop-color="#EC4951" stop-opacity="0"/>
<stop offset="0.172108" stop-color="#E95457"/>
<stop offset="0.495676" stop-color="#C9140E"/>
<stop offset="0.812641" stop-color="#A91253"/>
<stop offset="1" stop-color="#ECA849" stop-opacity="0"/>
</radialGradient>
<radialGradient id="paint6_radial_1_111" cx="0" cy="0" r="1" gradientUnits="userSpaceOnUse" gradientTransform="translate(959.108 423.016) rotate(-180) scale(8.97368 122.966)">
<stop stop-color="#EC4951" stop-opacity="0"/>
<stop offset="0.172108" stop-color="#E95457"/>
<stop offset="0.495676" stop-color="#C9140E"/>
<stop offset="0.812641" stop-color="#A91253"/>
<stop offset="1" stop-color="#ECA849" stop-opacity="0"/>
</radialGradient>
<radialGradient id="paint7_radial_1_111" cx="0" cy="0" r="1" gradientUnits="userSpaceOnUse" gradientTransform="translate(1059.11 423.016) rotate(-180) scale(8.97368 122.966)">
<stop stop-color="#EC4951" stop-opacity="0"/>
<stop offset="0.172108" stop-color="#E95457"/>
<stop offset="0.495676" stop-color="#C9140E"/>
<stop offset="0.812641" stop-color="#A91253"/>
<stop offset="1" stop-color="#ECA849" stop-opacity="0"/>
</radialGradient>
<radialGradient id="paint8_radial_1_111" cx="0" cy="0" r="1" gradientUnits="userSpaceOnUse" gradientTransform="translate(1061.61 618.741) rotate(-180) scale(6.18951 93.2671)">
<stop stop-color="#EC4951" stop-opacity="0"/>
<stop offset="0.172108" stop-color="#E95457"/>
<stop offset="0.495676" stop-color="#C9140E"/>
<stop offset="0.812641" stop-color="#A91253"/>
<stop offset="1" stop-color="#ECA849" stop-opacity="0"/>
</radialGradient>
<radialGradient id="paint9_radial_1_111" cx="0" cy="0" r="1" gradientUnits="userSpaceOnUse" gradientTransform="translate(482.571 302.066) scale(82.7677 2134.58)">
<stop stop-color="#EC4951" stop-opacity="0"/>
<stop offset="0.172108" stop-color="#E95457"/>
<stop offset="0.495676" stop-color="#C9140E"/>
<stop offset="0.812641" stop-color="#A91253"/>
<stop offset="1" stop-color="#ECA849" stop-opacity="0"/>
</radialGradient>
<radialGradient id="paint10_radial_1_111" cx="0" cy="0" r="1" gradientUnits="userSpaceOnUse" gradientTransform="translate(427.065 626.74) scale(6.18951 93.2668)">
<stop stop-color="#EC4951" stop-opacity="0"/>
<stop offset="0.172108" stop-color="#E95457"/>
<stop offset="0.495676" stop-color="#C9140E"/>
<stop offset="0.812641" stop-color="#A91253"/>
<stop offset="1" stop-color="#ECA849" stop-opacity="0"/>
</radialGradient>
<radialGradient id="paint11_radial_1_111" cx="0" cy="0" r="1" gradientUnits="userSpaceOnUse" gradientTransform="translate(481.441 536.889) scale(82.9033 2135.26)">
<stop stop-color="#EC4951" stop-opacity="0"/>
<stop offset="0.172108" stop-color="#E95457"/>
<stop offset="0.495676" stop-color="#C9140E"/>
<stop offset="0.812641" stop-color="#A91253"/>
<stop offset="1" stop-color="#ECA849" stop-opacity="0"/>
</radialGradient>
<radialGradient id="paint12_radial_1_111" cx="0" cy="0" r="1" gradientUnits="userSpaceOnUse" gradientTransform="translate(585.571 302.066) scale(82.7677 2134.58)">
<stop stop-color="#EC4951" stop-opacity="0"/>
<stop offset="0.172108" stop-color="#E95457"/>
<stop offset="0.495676" stop-color="#C9140E"/>
<stop offset="0.812641" stop-color="#A91253"/>
<stop offset="1" stop-color="#ECA849" stop-opacity="0"/>
</radialGradient>
<radialGradient id="paint13_radial_1_111" cx="0" cy="0" r="1" gradientUnits="userSpaceOnUse" gradientTransform="translate(530.065 626.74) scale(6.18951 93.2668)">
<stop stop-color="#EC4951" stop-opacity="0"/>
<stop offset="0.172108" stop-color="#E95457"/>
<stop offset="0.495676" stop-color="#C9140E"/>
<stop offset="0.812641" stop-color="#A91253"/>
<stop offset="1" stop-color="#ECA849" stop-opacity="0"/>
</radialGradient>
<radialGradient id="paint14_radial_1_111" cx="0" cy="0" r="1" gradientUnits="userSpaceOnUse" gradientTransform="translate(584.441 536.889) scale(82.9033 2135.26)">
<stop stop-color="#EC4951" stop-opacity="0"/>
<stop offset="0.172108" stop-color="#E95457"/>
<stop offset="0.495676" stop-color="#C9140E"/>
<stop offset="0.812641" stop-color="#A91253"/>
<stop offset="1" stop-color="#ECA849" stop-opacity="0"/>
</radialGradient>
<radialGradient id="paint15_radial_1_111" cx="0" cy="0" r="1" gradientUnits="userSpaceOnUse" gradientTransform="translate(1107.11 302.066) rotate(-180) scale(82.7677 2134.59)">
<stop stop-color="#EC4951" stop-opacity="0"/>
<stop offset="0.172108" stop-color="#E95457"/>
<stop offset="0.495676" stop-color="#C9140E"/>
<stop offset="0.812641" stop-color="#A91253"/>
<stop offset="1" stop-color="#ECA849" stop-opacity="0"/>
</radialGradient>
<radialGradient id="paint16_radial_1_111" cx="0" cy="0" r="1" gradientUnits="userSpaceOnUse" gradientTransform="translate(1162.61 626.741) rotate(-180) scale(6.18951 93.2671)">
<stop stop-color="#EC4951" stop-opacity="0"/>
<stop offset="0.172108" stop-color="#E95457"/>
<stop offset="0.495676" stop-color="#C9140E"/>
<stop offset="0.812641" stop-color="#A91253"/>
<stop offset="1" stop-color="#ECA849" stop-opacity="0"/>
</radialGradient>
<radialGradient id="paint17_radial_1_111" cx="0" cy="0" r="1" gradientUnits="userSpaceOnUse" gradientTransform="translate(1108.24 536.89) rotate(-180) scale(82.9033 2135.27)">
<stop stop-color="#EC4951" stop-opacity="0"/>
<stop offset="0.172108" stop-color="#E95457"/>
<stop offset="0.495676" stop-color="#C9140E"/>
<stop offset="0.812641" stop-color="#A91253"/>
<stop offset="1" stop-color="#ECA849" stop-opacity="0"/>
</radialGradient>
<radialGradient id="paint18_radial_1_111" cx="0" cy="0" r="1" gradientUnits="userSpaceOnUse" gradientTransform="translate(1006.11 306.066) rotate(-180) scale(82.7677 2134.59)">
<stop stop-color="#EC4951" stop-opacity="0"/>
<stop offset="0.172108" stop-color="#E95457"/>
<stop offset="0.495676" stop-color="#C9140E"/>
<stop offset="0.812641" stop-color="#A91253"/>
<stop offset="1" stop-color="#ECA849" stop-opacity="0"/>
</radialGradient>
<radialGradient id="paint19_radial_1_111" cx="0" cy="0" r="1" gradientUnits="userSpaceOnUse" gradientTransform="translate(1007.24 540.89) rotate(-180) scale(82.9033 2135.27)">
<stop stop-color="#EC4951" stop-opacity="0"/>
<stop offset="0.172108" stop-color="#E95457"/>
<stop offset="0.495676" stop-color="#C9140E"/>
<stop offset="0.812641" stop-color="#A91253"/>
<stop offset="1" stop-color="#ECA849" stop-opacity="0"/>
</radialGradient>
<radialGradient id="paint20_radial_1_111" cx="0" cy="0" r="1" gradientUnits="userSpaceOnUse" gradientTransform="translate(871.233 532.354) rotate(116.796) scale(10.0883 14.0365)">
<stop stop-color="white"/>
<stop offset="0.536458" stop-color="#C96161"/>
<stop offset="1" stop-color="#EC4949"/>
</radialGradient>
<radialGradient id="paint21_radial_1_111" cx="0" cy="0" r="1" gradientUnits="userSpaceOnUse" gradientTransform="translate(744.147 145.437) scale(14.1473 760.238)">
<stop stop-color="#EC4951" stop-opacity="0"/>
<stop offset="0.172108" stop-color="#E95457"/>
<stop offset="0.495676" stop-color="#C9140E"/>
<stop offset="0.812641" stop-color="#A91253"/>
<stop offset="1" stop-color="#ECA849" stop-opacity="0"/>
</radialGradient>
<radialGradient id="paint22_radial_1_111" cx="0" cy="0" r="1" gradientUnits="userSpaceOnUse" gradientTransform="translate(756.029 58.8026) scale(2.17651 118.479)">
<stop stop-color="#EC4951" stop-opacity="0"/>
<stop offset="0.172108" stop-color="#E95457"/>
<stop offset="0.495676" stop-color="#C9140E"/>
<stop offset="0.812641" stop-color="#A91253"/>
<stop offset="1" stop-color="#ECA849" stop-opacity="0"/>
</radialGradient>
<radialGradient id="paint23_radial_1_111" cx="0" cy="0" r="1" gradientUnits="userSpaceOnUse" gradientTransform="translate(737.906 147.26) scale(33.083 2221.48)">
<stop stop-color="#EC4951" stop-opacity="0"/>
<stop offset="0.172108" stop-color="#E95457"/>
<stop offset="0.495676" stop-color="#C9140E"/>
<stop offset="0.812641" stop-color="#A91253"/>
<stop offset="1" stop-color="#ECA849" stop-opacity="0"/>
</radialGradient>
<radialGradient id="paint24_radial_1_111" cx="0" cy="0" r="1" gradientUnits="userSpaceOnUse" gradientTransform="translate(744.147 243.395) scale(14.1473 760.239)">
<stop stop-color="#EC4951" stop-opacity="0"/>
<stop offset="0.172108" stop-color="#E95457"/>
<stop offset="0.495676" stop-color="#C9140E"/>
<stop offset="0.812641" stop-color="#A91253"/>
<stop offset="1" stop-color="#ECA849" stop-opacity="0"/>
</radialGradient>
<radialGradient id="paint25_radial_1_111" cx="0" cy="0" r="1" gradientUnits="userSpaceOnUse" gradientTransform="translate(756.395 155.946) scale(4.89474 282.821)">
<stop stop-color="#EC4951" stop-opacity="0"/>
<stop offset="0.172108" stop-color="#E95457"/>
<stop offset="0.495676" stop-color="#C9140E"/>
<stop offset="0.812641" stop-color="#A91253"/>
<stop offset="1" stop-color="#ECA849" stop-opacity="0"/>
</radialGradient>
<radialGradient id="paint26_radial_1_111" cx="0" cy="0" r="1" gradientUnits="userSpaceOnUse" gradientTransform="translate(737.905 245.217) scale(33.083 2221.48)">
<stop stop-color="#EC4951" stop-opacity="0"/>
<stop offset="0.172108" stop-color="#E95457"/>
<stop offset="0.495676" stop-color="#C9140E"/>
<stop offset="0.812641" stop-color="#A91253"/>
<stop offset="1" stop-color="#ECA849" stop-opacity="0"/>
</radialGradient>
<radialGradient id="paint27_radial_1_111" cx="0" cy="0" r="1" gradientUnits="userSpaceOnUse" gradientTransform="translate(739.716 334.928) scale(18.957 760.239)">
<stop stop-color="#EC4951" stop-opacity="0"/>
<stop offset="0.172108" stop-color="#E95457"/>
<stop offset="0.495676" stop-color="#C9140E"/>
<stop offset="0.812641" stop-color="#A91253"/>
<stop offset="1" stop-color="#ECA849" stop-opacity="0"/>
</radialGradient>
<radialGradient id="paint28_radial_1_111" cx="0" cy="0" r="1" gradientUnits="userSpaceOnUse" gradientTransform="translate(754.692 250.46) scale(4.37252 172.152)">
<stop stop-color="#EC4951" stop-opacity="0"/>
<stop offset="0.172108" stop-color="#E95457"/>
<stop offset="0.495676" stop-color="#C9140E"/>
<stop offset="0.812641" stop-color="#A91253"/>
<stop offset="1" stop-color="#ECA849" stop-opacity="0"/>
</radialGradient>
<radialGradient id="paint29_radial_1_111" cx="0" cy="0" r="1" gradientUnits="userSpaceOnUse" gradientTransform="translate(731.353 336.751) scale(44.3301 2221.48)">
<stop stop-color="#EC4951" stop-opacity="0"/>
<stop offset="0.172108" stop-color="#E95457"/>
<stop offset="0.495676" stop-color="#C9140E"/>
<stop offset="0.812641" stop-color="#A91253"/>
<stop offset="1" stop-color="#ECA849" stop-opacity="0"/>
</radialGradient>
<radialGradient id="paint30_radial_1_111" cx="0" cy="0" r="1" gradientUnits="userSpaceOnUse" gradientTransform="translate(743.966 700.104) scale(14.1473 760.238)">
<stop stop-color="#EC4951" stop-opacity="0"/>
<stop offset="0.172108" stop-color="#E95457"/>
<stop offset="0.495676" stop-color="#C9140E"/>
<stop offset="0.812641" stop-color="#A91253"/>
<stop offset="1" stop-color="#ECA849" stop-opacity="0"/>
</radialGradient>
<radialGradient id="paint31_radial_1_111" cx="0" cy="0" r="1" gradientUnits="userSpaceOnUse" gradientTransform="translate(755.848 786.739) scale(2.17651 118.479)">
<stop stop-color="#EC4951" stop-opacity="0"/>
<stop offset="0.172108" stop-color="#E95457"/>
<stop offset="0.495676" stop-color="#C9140E"/>
<stop offset="0.812641" stop-color="#A91253"/>
<stop offset="1" stop-color="#ECA849" stop-opacity="0"/>
</radialGradient>
<radialGradient id="paint32_radial_1_111" cx="0" cy="0" r="1" gradientUnits="userSpaceOnUse" gradientTransform="translate(737.725 698.281) scale(33.083 2221.48)">
<stop stop-color="#EC4951" stop-opacity="0"/>
<stop offset="0.172108" stop-color="#E95457"/>
<stop offset="0.495676" stop-color="#C9140E"/>
<stop offset="0.812641" stop-color="#A91253"/>
<stop offset="1" stop-color="#ECA849" stop-opacity="0"/>
</radialGradient>
<radialGradient id="paint33_radial_1_111" cx="0" cy="0" r="1" gradientUnits="userSpaceOnUse" gradientTransform="translate(743.966 602.147) scale(14.1473 760.239)">
<stop stop-color="#EC4951" stop-opacity="0"/>
<stop offset="0.172108" stop-color="#E95457"/>
<stop offset="0.495676" stop-color="#C9140E"/>
<stop offset="0.812641" stop-color="#A91253"/>
<stop offset="1" stop-color="#ECA849" stop-opacity="0"/>
</radialGradient>
<radialGradient id="paint34_radial_1_111" cx="0" cy="0" r="1" gradientUnits="userSpaceOnUse" gradientTransform="translate(756.214 689.595) scale(4.89474 282.821)">
<stop stop-color="#EC4951" stop-opacity="0"/>
<stop offset="0.172108" stop-color="#E95457"/>
<stop offset="0.495676" stop-color="#C9140E"/>
<stop offset="0.812641" stop-color="#A91253"/>
<stop offset="1" stop-color="#ECA849" stop-opacity="0"/>
</radialGradient>
<radialGradient id="paint35_radial_1_111" cx="0" cy="0" r="1" gradientUnits="userSpaceOnUse" gradientTransform="translate(737.725 600.324) scale(33.083 2221.48)">
<stop stop-color="#EC4951" stop-opacity="0"/>
<stop offset="0.172108" stop-color="#E95457"/>
<stop offset="0.495676" stop-color="#C9140E"/>
<stop offset="0.812641" stop-color="#A91253"/>
<stop offset="1" stop-color="#ECA849" stop-opacity="0"/>
</radialGradient>
<radialGradient id="paint36_radial_1_111" cx="0" cy="0" r="1" gradientUnits="userSpaceOnUse" gradientTransform="translate(739.321 510.595) scale(18.7632 750.09)">
<stop stop-color="#EC4951" stop-opacity="0"/>
<stop offset="0.172108" stop-color="#E95457"/>
<stop offset="0.495676" stop-color="#C9140E"/>
<stop offset="0.812641" stop-color="#A91253"/>
<stop offset="1" stop-color="#ECA849" stop-opacity="0"/>
</radialGradient>
<radialGradient id="paint37_radial_1_111" cx="0" cy="0" r="1" gradientUnits="userSpaceOnUse" gradientTransform="translate(755.143 595.081) scale(3.26316 172.152)">
<stop stop-color="#EC4951" stop-opacity="0"/>
<stop offset="0.172108" stop-color="#E95457"/>
<stop offset="0.495676" stop-color="#C9140E"/>
<stop offset="0.812641" stop-color="#A91253"/>
<stop offset="1" stop-color="#ECA849" stop-opacity="0"/>
</radialGradient>
<radialGradient id="paint38_radial_1_111" cx="0" cy="0" r="1" gradientUnits="userSpaceOnUse" gradientTransform="translate(730.929 508.781) scale(44.0526 2225.68)">
<stop stop-color="#EC4951" stop-opacity="0"/>
<stop offset="0.172108" stop-color="#E95457"/>
<stop offset="0.495676" stop-color="#C9140E"/>
<stop offset="0.812641" stop-color="#A91253"/>
<stop offset="1" stop-color="#ECA849" stop-opacity="0"/>
</radialGradient>
<radialGradient id="paint39_radial_1_111" cx="0" cy="0" r="1" gradientUnits="userSpaceOnUse" gradientTransform="translate(842.853 700.563) rotate(-180) scale(14.1473 760.238)">
<stop stop-color="#EC4951" stop-opacity="0"/>
<stop offset="0.172108" stop-color="#E95457"/>
<stop offset="0.495676" stop-color="#C9140E"/>
<stop offset="0.812641" stop-color="#A91253"/>
<stop offset="1" stop-color="#ECA849" stop-opacity="0"/>
</radialGradient>
<radialGradient id="paint40_radial_1_111" cx="0" cy="0" r="1" gradientUnits="userSpaceOnUse" gradientTransform="translate(830.971 787.197) rotate(-180) scale(2.17651 118.479)">
<stop stop-color="#EC4951" stop-opacity="0"/>
<stop offset="0.172108" stop-color="#E95457"/>
<stop offset="0.495676" stop-color="#C9140E"/>
<stop offset="0.812641" stop-color="#A91253"/>
<stop offset="1" stop-color="#ECA849" stop-opacity="0"/>
</radialGradient>
<radialGradient id="paint41_radial_1_111" cx="0" cy="0" r="1" gradientUnits="userSpaceOnUse" gradientTransform="translate(849.095 698.74) rotate(-180) scale(33.083 2221.48)">
<stop stop-color="#EC4951" stop-opacity="0"/>
<stop offset="0.172108" stop-color="#E95457"/>
<stop offset="0.495676" stop-color="#C9140E"/>
<stop offset="0.812641" stop-color="#A91253"/>
<stop offset="1" stop-color="#ECA849" stop-opacity="0"/>
</radialGradient>
<radialGradient id="paint42_radial_1_111" cx="0" cy="0" r="1" gradientUnits="userSpaceOnUse" gradientTransform="translate(842.853 602.605) rotate(-180) scale(14.1473 760.239)">
<stop stop-color="#EC4951" stop-opacity="0"/>
<stop offset="0.172108" stop-color="#E95457"/>
<stop offset="0.495676" stop-color="#C9140E"/>
<stop offset="0.812641" stop-color="#A91253"/>
<stop offset="1" stop-color="#ECA849" stop-opacity="0"/>
</radialGradient>
<radialGradient id="paint43_radial_1_111" cx="0" cy="0" r="1" gradientUnits="userSpaceOnUse" gradientTransform="translate(830.605 690.054) rotate(-180) scale(4.89474 282.821)">
<stop stop-color="#EC4951" stop-opacity="0"/>
<stop offset="0.172108" stop-color="#E95457"/>
<stop offset="0.495676" stop-color="#C9140E"/>
<stop offset="0.812641" stop-color="#A91253"/>
<stop offset="1" stop-color="#ECA849" stop-opacity="0"/>
</radialGradient>
<radialGradient id="paint44_radial_1_111" cx="0" cy="0" r="1" gradientUnits="userSpaceOnUse" gradientTransform="translate(849.095 600.783) rotate(-180) scale(33.083 2221.48)">
<stop stop-color="#EC4951" stop-opacity="0"/>
<stop offset="0.172108" stop-color="#E95457"/>
<stop offset="0.495676" stop-color="#C9140E"/>
<stop offset="0.812641" stop-color="#A91253"/>
<stop offset="1" stop-color="#ECA849" stop-opacity="0"/>
</radialGradient>
<radialGradient id="paint45_radial_1_111" cx="0" cy="0" r="1" gradientUnits="userSpaceOnUse" gradientTransform="translate(847.284 511.072) rotate(-180) scale(18.957 760.239)">
<stop stop-color="#EC4951" stop-opacity="0"/>
<stop offset="0.172108" stop-color="#E95457"/>
<stop offset="0.495676" stop-color="#C9140E"/>
<stop offset="0.812641" stop-color="#A91253"/>
<stop offset="1" stop-color="#ECA849" stop-opacity="0"/>
</radialGradient>
<radialGradient id="paint46_radial_1_111" cx="0" cy="0" r="1" gradientUnits="userSpaceOnUse" gradientTransform="translate(832.308 595.54) rotate(-180) scale(4.37252 172.152)">
<stop stop-color="#EC4951" stop-opacity="0"/>
<stop offset="0.172108" stop-color="#E95457"/>
<stop offset="0.495676" stop-color="#C9140E"/>
<stop offset="0.812641" stop-color="#A91253"/>
<stop offset="1" stop-color="#ECA849" stop-opacity="0"/>
</radialGradient>
<radialGradient id="paint47_radial_1_111" cx="0" cy="0" r="1" gradientUnits="userSpaceOnUse" gradientTransform="translate(855.647 509.249) rotate(-180) scale(44.3301 2221.48)">
<stop stop-color="#EC4951" stop-opacity="0"/>
<stop offset="0.172108" stop-color="#E95457"/>
<stop offset="0.495676" stop-color="#C9140E"/>
<stop offset="0.812641" stop-color="#A91253"/>
<stop offset="1" stop-color="#ECA849" stop-opacity="0"/>
</radialGradient>
<radialGradient id="paint48_radial_1_111" cx="0" cy="0" r="1" gradientUnits="userSpaceOnUse" gradientTransform="translate(843.034 145.896) rotate(180) scale(14.1473 760.238)">
<stop stop-color="#EC4951" stop-opacity="0"/>
<stop offset="0.172108" stop-color="#E95457"/>
<stop offset="0.495676" stop-color="#C9140E"/>
<stop offset="0.812641" stop-color="#A91253"/>
<stop offset="1" stop-color="#ECA849" stop-opacity="0"/>
</radialGradient>
<radialGradient id="paint49_radial_1_111" cx="0" cy="0" r="1" gradientUnits="userSpaceOnUse" gradientTransform="translate(831.152 59.2614) rotate(180) scale(2.17651 118.479)">
<stop stop-color="#EC4951" stop-opacity="0"/>
<stop offset="0.172108" stop-color="#E95457"/>
<stop offset="0.495676" stop-color="#C9140E"/>
<stop offset="0.812641" stop-color="#A91253"/>
<stop offset="1" stop-color="#ECA849" stop-opacity="0"/>
</radialGradient>
<radialGradient id="paint50_radial_1_111" cx="0" cy="0" r="1" gradientUnits="userSpaceOnUse" gradientTransform="translate(849.275 147.719) rotate(-180) scale(33.083 2221.48)">
<stop stop-color="#EC4951" stop-opacity="0"/>
<stop offset="0.172108" stop-color="#E95457"/>
<stop offset="0.495676" stop-color="#C9140E"/>
<stop offset="0.812641" stop-color="#A91253"/>
<stop offset="1" stop-color="#ECA849" stop-opacity="0"/>
</radialGradient>
<radialGradient id="paint51_radial_1_111" cx="0" cy="0" r="1" gradientUnits="userSpaceOnUse" gradientTransform="translate(843.034 243.853) rotate(180) scale(14.1473 760.239)">
<stop stop-color="#EC4951" stop-opacity="0"/>
<stop offset="0.172108" stop-color="#E95457"/>
<stop offset="0.495676" stop-color="#C9140E"/>
<stop offset="0.812641" stop-color="#A91253"/>
<stop offset="1" stop-color="#ECA849" stop-opacity="0"/>
</radialGradient>
<radialGradient id="paint52_radial_1_111" cx="0" cy="0" r="1" gradientUnits="userSpaceOnUse" gradientTransform="translate(830.786 156.405) rotate(180) scale(4.89474 282.821)">
<stop stop-color="#EC4951" stop-opacity="0"/>
<stop offset="0.172108" stop-color="#E95457"/>
<stop offset="0.495676" stop-color="#C9140E"/>
<stop offset="0.812641" stop-color="#A91253"/>
<stop offset="1" stop-color="#ECA849" stop-opacity="0"/>
</radialGradient>
<radialGradient id="paint53_radial_1_111" cx="0" cy="0" r="1" gradientUnits="userSpaceOnUse" gradientTransform="translate(849.275 245.676) rotate(-180) scale(33.083 2221.48)">
<stop stop-color="#EC4951" stop-opacity="0"/>
<stop offset="0.172108" stop-color="#E95457"/>
<stop offset="0.495676" stop-color="#C9140E"/>
<stop offset="0.812641" stop-color="#A91253"/>
<stop offset="1" stop-color="#ECA849" stop-opacity="0"/>
</radialGradient>
<radialGradient id="paint54_radial_1_111" cx="0" cy="0" r="1" gradientUnits="userSpaceOnUse" gradientTransform="translate(847.679 335.405) rotate(-180) scale(18.7632 750.09)">
<stop stop-color="#EC4951" stop-opacity="0"/>
<stop offset="0.172108" stop-color="#E95457"/>
<stop offset="0.495676" stop-color="#C9140E"/>
<stop offset="0.812641" stop-color="#A91253"/>
<stop offset="1" stop-color="#ECA849" stop-opacity="0"/>
</radialGradient>
<radialGradient id="paint55_radial_1_111" cx="0" cy="0" r="1" gradientUnits="userSpaceOnUse" gradientTransform="translate(831.857 250.919) rotate(-180) scale(3.26316 172.152)">
<stop stop-color="#EC4951" stop-opacity="0"/>
<stop offset="0.172108" stop-color="#E95457"/>
<stop offset="0.495676" stop-color="#C9140E"/>
<stop offset="0.812641" stop-color="#A91253"/>
<stop offset="1" stop-color="#ECA849" stop-opacity="0"/>
</radialGradient>
<radialGradient id="paint56_radial_1_111" cx="0" cy="0" r="1" gradientUnits="userSpaceOnUse" gradientTransform="translate(856.071 337.219) rotate(-180) scale(44.0526 2225.68)">
<stop stop-color="#EC4951" stop-opacity="0"/>
<stop offset="0.172108" stop-color="#E95457"/>
<stop offset="0.495676" stop-color="#C9140E"/>
<stop offset="0.812641" stop-color="#A91253"/>
<stop offset="1" stop-color="#ECA849" stop-opacity="0"/>
</radialGradient>
<radialGradient id="paint57_radial_1_111" cx="0" cy="0" r="1" gradientUnits="userSpaceOnUse" gradientTransform="translate(794.091 514.617) rotate(90) scale(47.7135 719.194)">
<stop stop-color="#EC4951" stop-opacity="0"/>
<stop offset="0.172108" stop-color="#E95457"/>
<stop offset="0.495676" stop-color="#C9140E"/>
<stop offset="0.812641" stop-color="#A91253"/>
<stop offset="1" stop-color="#ECA849" stop-opacity="0"/>
</radialGradient>
<radialGradient id="paint58_radial_1_111" cx="0" cy="0" r="1" gradientUnits="userSpaceOnUse" gradientTransform="translate(794.072 514.191) rotate(90) scale(37.976 572.42)">
<stop stop-color="#EC4951" stop-opacity="0"/>
<stop offset="0.172108" stop-color="#E95457"/>
<stop offset="0.495676" stop-color="#C9140E"/>
<stop offset="0.812641" stop-color="#A91253"/>
<stop offset="1" stop-color="#ECA849" stop-opacity="0"/>
</radialGradient>
<radialGradient id="paint59_radial_1_111" cx="0" cy="0" r="1" gradientUnits="userSpaceOnUse" gradientTransform="translate(794.385 431.857) rotate(90) scale(202.316 3049.54)">
<stop stop-color="#EC4951" stop-opacity="0"/>
<stop offset="0.172108" stop-color="#070000"/>
<stop offset="0.495676" stop-color="#610C09"/>
<stop offset="0.812641" stop-color="#0F0F0E"/>
<stop offset="1" stop-color="#100D09" stop-opacity="0"/>
</radialGradient>
<radialGradient id="paint60_radial_1_111" cx="0" cy="0" r="1" gradientUnits="userSpaceOnUse" gradientTransform="translate(794.275 430.307) rotate(90) scale(144.511 2178.25)">
<stop stop-color="#EC4951" stop-opacity="0"/>
<stop offset="0.172108" stop-color="#070000"/>
<stop offset="0.495676" stop-color="#610C09"/>
<stop offset="0.812641" stop-color="#0F0F0E"/>
<stop offset="1" stop-color="#100D09" stop-opacity="0"/>
</radialGradient>
<radialGradient id="paint61_radial_1_111" cx="0" cy="0" r="1" gradientUnits="userSpaceOnUse" gradientTransform="translate(794.385 431.857) rotate(90) scale(202.316 3049.54)">
<stop stop-color="#EC4951" stop-opacity="0"/>
<stop offset="0.172108" stop-color="#070000"/>
<stop offset="0.495676" stop-color="#610C09"/>
<stop offset="0.812641" stop-color="#0F0F0E"/>
<stop offset="1" stop-color="#100D09" stop-opacity="0"/>
</radialGradient>
<radialGradient id="paint62_radial_1_111" cx="0" cy="0" r="1" gradientUnits="userSpaceOnUse" gradientTransform="translate(794.275 430.307) rotate(90) scale(144.511 2178.25)">
<stop stop-color="#EC4951" stop-opacity="0"/>
<stop offset="0.172108" stop-color="#070000"/>
<stop offset="0.495676" stop-color="#610C09"/>
<stop offset="0.812641" stop-color="#0F0F0E"/>
<stop offset="1" stop-color="#100D09" stop-opacity="0"/>
</radialGradient>
<radialGradient id="paint63_radial_1_111" cx="0" cy="0" r="1" gradientUnits="userSpaceOnUse" gradientTransform="translate(794.045 535.771) rotate(90.099) scale(16.1019 63.1692)">
<stop stop-color="#EC499D" stop-opacity="0"/>
<stop offset="0.172108" stop-color="#E9AB54"/>
<stop offset="0.495676" stop-color="#C96163"/>
<stop offset="0.812641" stop-color="#EC4949"/>
<stop offset="1" stop-color="#EC498A" stop-opacity="0"/>
</radialGradient>
<radialGradient id="paint64_radial_1_111" cx="0" cy="0" r="1" gradientUnits="userSpaceOnUse" gradientTransform="translate(794.082 535.83) rotate(90) scale(6.28472)">
<stop stop-color="white"/>
<stop offset="0.786931" stop-color="#C96172"/>
<stop offset="0.925753" stop-color="#EC4972"/>
<stop offset="0.989583" stop-color="#000429"/>
</radialGradient>
<radialGradient id="paint65_radial_1_111" cx="0" cy="0" r="1" gradientUnits="userSpaceOnUse" gradientTransform="translate(796.93 532.688) rotate(107.67) scale(9.45087)">
<stop stop-color="white"/>
<stop offset="0.536458" stop-color="#C9616F"/>
<stop offset="1" stop-color="#EC494C"/>
</radialGradient>
<radialGradient id="paint66_radial_1_111" cx="0" cy="0" r="1" gradientUnits="userSpaceOnUse" gradientTransform="translate(796.637 450.679) rotate(90) scale(643.658 16907.8)">
<stop stop-color="#EC4990" stop-opacity="0"/>
<stop offset="0.172108" stop-color="#E95454"/>
<stop offset="0.495676" stop-color="#C96163"/>
<stop offset="0.812641" stop-color="#110206" stop-opacity="0.76"/>
<stop offset="1" stop-color="#EC4977" stop-opacity="0"/>
</radialGradient>
</defs>
</svg>
