<?xml version="1.0" encoding="UTF-8"?>
<svg version="1.1" xmlns="http://www.w3.org/2000/svg" width="486" height="422">
<path d="M0 0 C0.99 0 1.98 0 3 0 C4.70929102 2.53509414 6.21157262 5.02026012 7.6875 7.6875 C8.58346594 9.26108312 9.48061319 10.83399418 10.37890625 12.40625 C11.0443042 13.57994141 11.0443042 13.57994141 11.72314453 14.77734375 C13.45559075 17.79305892 15.28166229 20.73815967 17.125 23.6875 C20.20291868 28.65048936 23.12772369 33.68719484 26.00048828 38.77026367 C28.25050391 42.73444607 30.59384583 46.62759563 33 50.5 C35.76506919 54.95003323 38.42294542 59.44011153 41 64 C44.83014632 70.7736673 48.89865389 77.38710793 53 84 C54.15067576 85.87203214 55.2969563 87.74677768 56.4375 89.625 C56.91058594 90.40101562 57.38367188 91.17703125 57.87109375 91.9765625 C59 94 59 94 60 97 C58.93434107 99.21907125 57.82460225 101.2211846 56.5390625 103.30859375 C56.16240448 103.93806412 55.78574646 104.56753448 55.39767456 105.21607971 C54.14980811 107.29589415 52.88751886 109.36655304 51.625 111.4375 C50.74847134 112.89204962 49.87283048 114.34713459 48.99804688 115.80273438 C46.76623333 119.51031586 44.52229471 123.2103687 42.27307129 126.90740967 C41.09181992 128.8490725 39.91219444 130.79170908 38.73339844 132.73486328 C35.96530398 137.2973298 33.19588312 141.85897819 30.41845703 146.41577148 C25.04519042 155.2377494 19.76120349 164.11082029 14.5 173 C8.21953143 183.61130098 1.877075 194.18099227 -4.54199219 204.70898438 C-10.26451936 214.09842559 -15.89939881 223.53738361 -21.5 233 C-27.78008158 243.61064713 -34.1213157 254.18022552 -40.54098511 264.70697021 C-44.63985441 271.43065614 -48.70905766 278.1703117 -52.72265625 284.9453125 C-53.32785599 285.96682404 -53.32785599 285.96682404 -53.94528198 287.00897217 C-55.86854086 290.25755875 -57.78831986 293.50814274 -59.703125 296.76171875 C-67.29834097 309.62040575 -75.16732944 322.27191035 -83 335 C-19.64 335 43.72 335 109 335 C109 334.34 109 333.68 109 333 C108.34 333 107.68 333 107 333 C106.25556641 331.36804688 106.25556641 331.36804688 105.49609375 329.703125 C101.91456565 321.92804676 98.19487616 314.41673861 93.77734375 307.07421875 C90.57583863 301.53667033 87.81644724 295.77328375 84.99853516 290.03369141 C80.10232029 280.06169389 75.07376474 270.16309931 69.9375 260.3125 C69.42316406 259.32596436 68.90882813 258.33942871 68.37890625 257.32299805 C65.04157346 250.94195357 61.63515813 244.60737686 58.109375 238.328125 C57 236 57 236 57 233 C56.34 233 55.68 233 55 233 C52 226.5 52 226.5 52 222 C62.61270847 221.53479868 73.22296501 221.18039854 83.84382248 220.96375656 C88.7773311 220.85971517 93.70382997 220.7189475 98.63330078 220.49121094 C130.4682611 219.05803483 130.4682611 219.05803483 137.92623901 223.89968872 C142.2399771 228.46577774 144.42274591 233.53948547 146.18638611 239.50270081 C147.42862063 243.31560433 149.45587949 246.55013673 151.5625 249.9375 C152.46162109 251.52884766 152.46162109 251.52884766 153.37890625 253.15234375 C154.45405507 255.04097867 155.56609859 256.90911049 156.71484375 258.75390625 C158 261 158 261 158 263 C158.66 263 159.32 263 160 263 C160.474375 264.010625 160.94875 265.02125 161.4375 266.0625 C165.88427104 274.95604207 171.29935229 283.40435788 176.6875 291.75 C186 306.26270444 186 306.26270444 186 310 C186.66 310 187.32 310 188 310 C188.474375 311.010625 188.94875 312.02125 189.4375 313.0625 C191.55912341 317.32090127 193.97545656 321.37083111 196.4375 325.4375 C206 341.24322043 206 341.24322043 206 344 C206.66 344 207.32 344 208 344 C208.54527344 344.98097656 209.09054687 345.96195312 209.65234375 346.97265625 C213.53443104 353.93085212 217.45768877 360.85783488 221.5625 367.6875 C221.92907715 368.29762939 222.2956543 368.90775879 222.67333984 369.53637695 C224.5339885 372.61764065 226.42128715 375.67955776 228.34375 378.72265625 C228.71685303 379.31667236 229.08995605 379.91068848 229.47436523 380.52270508 C230.49898587 382.14917826 231.53241143 383.7700951 232.56640625 385.390625 C234 388 234 388 234 391 C234.66 391 235.32 391 236 391 C236.31710937 391.59683594 236.63421875 392.19367188 236.9609375 392.80859375 C239.43031591 397.39945472 241.94603003 401.93847038 244.625 406.41015625 C245.0782666 407.16820557 245.5315332 407.92625488 245.99853516 408.70727539 C246.9092317 410.22418763 247.82549916 411.7377705 248.74755859 413.24780273 C249.16859863 413.94977783 249.58963867 414.65175293 250.0234375 415.375 C250.40419434 416.00148438 250.78495117 416.62796875 251.17724609 417.2734375 C252 419 252 419 252 422 C91.62 422 -68.76 422 -234 422 C-233.16648955 417.83244776 -232.47640558 415.64662683 -230.515625 412.0703125 C-229.7414624 410.64851685 -229.7414624 410.64851685 -228.95166016 409.19799805 C-228.10933838 407.67686401 -228.10933838 407.67686401 -227.25 406.125 C-226.66653809 405.05999268 -226.08307617 403.99498535 -225.48193359 402.89770508 C-221.05778827 394.84737671 -216.55324085 386.84269712 -212.01635742 378.85546875 C-207.82106775 371.46945706 -203.68153433 364.05378334 -199.5625 356.625 C-194.68147763 347.8249955 -189.79116367 339.03043004 -184.875 330.25 C-184.29959473 329.22221436 -183.72418945 328.19442871 -183.13134766 327.13549805 C-180.33078633 322.13901508 -177.52044529 317.14838744 -174.69140625 312.16796875 C-169.17467927 302.4545033 -163.73218405 292.71159186 -158.4375 282.875 C-150.42257258 267.9928847 -142.01065934 253.3597527 -133.37304688 238.83178711 C-130.478984 233.92238477 -127.91492781 228.90480822 -125.43359375 223.7734375 C-123.40642838 219.85167342 -121.00367903 216.21159002 -118.58984375 212.51953125 C-116.85084105 209.76361788 -115.42324301 206.95672999 -114.0234375 204.01953125 C-112.81869414 201.64223232 -111.45487575 199.39732895 -110.0625 197.125 C-108.04163473 193.81260429 -106.20011384 190.48769335 -104.5 187 C-102.4017516 182.70294817 -100.03192835 178.64838536 -97.5390625 174.5703125 C-95.39457695 170.98891278 -93.41666792 167.3248941 -91.43359375 163.65234375 C-90.13952923 161.25814808 -88.82599066 158.87661585 -87.5 156.5 C-83.18222145 148.73910543 -78.91214774 140.9747627 -75 133 C-74.34 133 -73.68 133 -73 133 C-72.87625 132.443125 -72.7525 131.88625 -72.625 131.3125 C-71.94023145 128.77885636 -71.00866237 126.42078968 -70 124 C-69.34 124 -68.68 124 -68 124 C-67.84724609 123.19175781 -67.84724609 123.19175781 -67.69140625 122.3671875 C-66.81392179 119.36291867 -65.44075758 116.87127012 -63.9375 114.125 C-63.31488281 112.98546875 -62.69226563 111.8459375 -62.05078125 110.671875 C-59.61168928 106.27937718 -57.11216395 101.92075839 -54.57788086 97.58251953 C-53.11891823 95.06590933 -51.92355057 92.77065171 -51 90 C-50.34 90 -49.68 90 -49 90 C-48.73445312 89.14148438 -48.46890625 88.28296875 -48.1953125 87.3984375 C-46.98976199 83.97089192 -45.52755614 80.85826202 -43.875 77.625 C-43.33617187 76.56539063 -42.79734375 75.50578125 -42.2421875 74.4140625 C-41.83226562 73.61742188 -41.42234375 72.82078125 -41 72 C-40.34 72 -39.68 72 -39 72 C-38.75378906 71.15824219 -38.50757813 70.31648438 -38.25390625 69.44921875 C-36.85525532 65.6018394 -35.0270645 62.31504371 -32.9375 58.8125 C-30.11129079 54.08109198 -30.11129079 54.08109198 -28 49 C-27.34 49 -26.68 49 -26 49 C-25.73517822 48.1322998 -25.47035645 47.26459961 -25.19750977 46.37060547 C-24.0101553 43.0285839 -22.57529531 40.15916192 -20.83984375 37.0703125 C-20.214729 35.95180908 -19.58961426 34.83330566 -18.94555664 33.6809082 C-18.27632615 32.49553674 -17.60697182 31.31023518 -16.9375 30.125 C-16.25793022 28.9132579 -15.57881427 27.70126119 -14.90014648 26.48901367 C-13.55849447 24.09465767 -12.21392512 21.70198418 -10.86621094 19.31103516 C-9.24341322 16.43186422 -7.62442726 13.55061387 -6.0078125 10.66796875 C-4.01064963 7.10888783 -2.00779645 3.55309236 0 0 Z " fill="#FFFFFF" transform="translate(234,0)"/>
<path d="M0 0 C2.56872615 0.36119505 3.71026589 0.65163043 5.39697266 2.6796875 C5.8151123 3.40414062 6.23325195 4.12859375 6.6640625 4.875 C7.14190186 5.68775391 7.61974121 6.50050781 8.11206055 7.33789062 C8.61133057 8.21638672 9.11060059 9.09488281 9.625 10 C10.14553955 10.89396484 10.6660791 11.78792969 11.20239258 12.70898438 C12.27880105 14.55846323 13.35045498 16.41071696 14.41748047 18.265625 C15.91222612 20.84833887 17.4347362 23.4115648 18.97265625 25.96875 C19.43140137 26.73445313 19.89014648 27.50015625 20.36279297 28.2890625 C21.22802687 29.73313884 22.09544588 31.17590881 22.96533203 32.6171875 C24.80813524 35.72667787 26.24223418 38.46922608 27 42 C27.66 42 28.32 42 29 42 C33 48.5 33 48.5 33 53 C7.26 53 -18.48 53 -45 53 C-45 49 -45 49 -43 46.75 C-42.0035127 45.82951597 -41.00301157 44.91337044 -40 44 C-35.47746342 39.60046128 -31.15403102 35.10622554 -27.0390625 30.32421875 C-24.45246287 27.37589159 -21.7915214 24.50096242 -19.125 21.625 C-9.27449323 11.06257598 -9.27449323 11.06257598 0 0 Z " fill="#FFFFFF" transform="translate(331,164)"/>
<path d="M0 0 C0.99 0.33 1.98 0.66 3 1 C3 1.99 3 2.98 3 4 C2.34 4 1.68 4 1 4 C0.67 2.68 0.34 1.36 0 0 Z " fill="#FFFFFF" transform="translate(294,98)"/>
</svg>
