<?xml version="1.0" encoding="UTF-8"?>
<svg version="1.1" xmlns="http://www.w3.org/2000/svg" width="500" height="500">
<path d="M0 0 C0.65775925 -0.00407553 1.31551849 -0.00815105 1.99320984 -0.01235008 C5.48977325 -0.03313241 8.9862986 -0.04745544 12.48291016 -0.05688477 C15.32004903 -0.06565105 18.15668306 -0.08630963 20.99365234 -0.1184082 C41.61665496 -0.34657988 61.22579498 1.03270233 81.28125 6.23828125 C81.28125 6.89828125 81.28125 7.55828125 81.28125 8.23828125 C82.35503906 8.3259375 83.42882812 8.41359375 84.53515625 8.50390625 C90.33073422 9.24090147 95.71229831 11.09183931 101.21875 12.98828125 C102.3430542 13.37516113 103.4673584 13.76204102 104.62573242 14.16064453 C117.11222154 18.63717909 128.76242956 24.69774923 140.28125 31.23828125 C141.67476685 32.00615967 141.67476685 32.00615967 143.09643555 32.78955078 C143.81742432 33.26763184 144.53841309 33.74571289 145.28125 34.23828125 C145.28125 34.89828125 145.28125 35.55828125 145.28125 36.23828125 C145.9515625 36.46902344 146.621875 36.69976562 147.3125 36.9375 C151.09360989 38.59422315 154.36283795 40.75266067 157.78125 43.05078125 C158.43222656 43.47681641 159.08320313 43.90285156 159.75390625 44.34179688 C163.72047865 46.99018511 166.91157454 49.84382876 170.28125 53.23828125 C171.84228157 54.4950307 173.41525173 55.73701251 174.99609375 56.96875 C180.30461939 61.16424526 185.09083701 65.74234698 189.84375 70.55078125 C190.66931396 71.3816626 191.49487793 72.21254395 192.34545898 73.06860352 C206.46652823 87.41046731 206.46652823 87.41046731 209.24609375 93.2734375 C210.20626786 95.35111126 210.20626786 95.35111126 212.08984375 96.953125 C215.19048 100.18640879 217.1554515 103.91302455 219.34375 107.80078125 C220.20526524 109.3253944 221.07100556 110.84762953 221.94140625 112.3671875 C222.31918213 113.0382251 222.69695801 113.7092627 223.08618164 114.40063477 C224.21796388 116.28244128 224.21796388 116.28244128 225.81298828 117.75805664 C228.38444436 120.35046406 229.60415531 123.82356452 231.09375 127.11328125 C231.80722724 128.66799832 232.5207694 130.2226856 233.234375 131.77734375 C233.75741211 132.92444824 233.75741211 132.92444824 234.29101562 134.09472656 C235.13094613 135.91291932 236.00696545 137.71437239 236.890625 139.51171875 C243.10375127 152.23860644 247.4216541 165.92008975 250.71875 179.67578125 C250.96455811 180.69430176 250.96455811 180.69430176 251.21533203 181.73339844 C252.09439005 185.63268374 252.43550824 189.24607787 252.28125 193.23828125 C252.94125 193.23828125 253.60125 193.23828125 254.28125 193.23828125 C256.02036871 202.64266172 256.57630781 211.71719465 256.546875 221.26953125 C256.54822781 222.6771247 256.55017342 224.08471769 256.55267334 225.49230957 C256.55559571 228.42021196 256.55142133 231.34799103 256.54199219 234.27587891 C256.53059936 237.99044875 256.53717453 241.70472935 256.54913712 245.41928864 C256.55643461 248.31929625 256.55403203 251.2192376 256.54888153 254.11924744 C256.54693715 256.14236646 256.55290943 258.16548828 256.55914307 260.18859863 C256.51811309 268.37860099 255.77071375 276.18392376 254.28125 284.23828125 C253.62125 284.23828125 252.96125 284.23828125 252.28125 284.23828125 C252.219375 285.49640625 252.1575 286.75453125 252.09375 288.05078125 C250.43798716 304.51512724 244.60356487 322.4187904 236.96875 336.97265625 C234.85982207 341.05382233 232.91274497 345.20162424 230.96875 349.36328125 C227.32697148 357.1468383 227.32697148 357.1468383 226.28125 359.23828125 C225.62125 359.23828125 224.96125 359.23828125 224.28125 359.23828125 C224.04535156 360.08003906 223.80945313 360.92179687 223.56640625 361.7890625 C222.08275171 365.77102894 220.10451269 368.9350718 217.71875 372.42578125 C217.27619873 373.08070557 216.83364746 373.73562988 216.37768555 374.41040039 C212.34247863 380.30104018 207.94375683 385.83082503 203.28125 391.23828125 C202.69859375 391.92019531 202.1159375 392.60210937 201.515625 393.3046875 C199.79001842 395.30042408 198.0394947 397.271245 196.28125 399.23828125 C195.4975 400.12644531 194.71375 401.01460938 193.90625 401.9296875 C181.5319325 415.79420483 181.5319325 415.79420483 176.1796875 418.171875 C174.1416326 419.07198731 174.1416326 419.07198731 173.4453125 421.05859375 C171.67559286 424.37236407 168.69576723 426.05416429 165.65625 428.11328125 C164.36914113 429.00426931 163.08267715 429.89618972 161.796875 430.7890625 C161.18134766 431.21396973 160.56582031 431.63887695 159.93164062 432.07666016 C158.03049119 433.41477687 156.2177541 434.84423403 154.40625 436.30078125 C150.47289371 439.29392737 146.19960578 441.68214373 141.90625 444.11328125 C141.19098145 444.5194165 140.47571289 444.92555176 139.73876953 445.34399414 C134.53464856 448.23828125 134.53464856 448.23828125 132.28125 448.23828125 C132.28125 448.89828125 132.28125 449.55828125 132.28125 450.23828125 C129.1611582 451.68660334 126.03434784 453.11984288 122.90625 454.55078125 C122.03613281 454.95490234 121.16601562 455.35902344 120.26953125 455.77539062 C114.38674955 458.45532451 108.52054759 460.54787667 102.28125 462.23828125 C102.28125 462.89828125 102.28125 463.55828125 102.28125 464.23828125 C78.62563051 471.16558118 78.62563051 471.16558118 66.71875 473.55078125 C65.99719727 473.69741211 65.27564453 473.84404297 64.53222656 473.99511719 C62.12080375 474.45591914 59.70647453 474.85630784 57.28125 475.23828125 C56.1770874 475.41488281 55.0729248 475.59148437 53.93530273 475.7734375 C42.1217635 477.46551039 30.38897708 477.63681153 18.46875 477.61328125 C16.91279617 477.61246552 16.91279617 477.61246552 15.32540894 477.6116333 C-13.1528719 477.54308032 -39.51234779 472.58256033 -66.71875 464.23828125 C-66.71875 463.57828125 -66.71875 462.91828125 -66.71875 462.23828125 C-67.6166626 461.99501099 -67.6166626 461.99501099 -68.53271484 461.74682617 C-75.0924114 459.88559959 -81.16621917 457.41990112 -87.34375 454.55078125 C-88.70693359 453.92719727 -88.70693359 453.92719727 -90.09765625 453.29101562 C-92.30740825 452.27918181 -94.51428786 451.26157525 -96.71875 450.23828125 C-96.71875 449.57828125 -96.71875 448.91828125 -96.71875 448.23828125 C-97.53472656 448.00625 -98.35070312 447.77421875 -99.19140625 447.53515625 C-103.49235673 445.95385441 -107.22664032 443.82311565 -111.15625 441.48828125 C-111.88134766 441.070625 -112.60644531 440.65296875 -113.35351562 440.22265625 C-117.6187335 437.70874526 -121.3613425 434.9808052 -125.05541992 431.68847656 C-128.60770713 428.59137015 -132.52116446 425.94647793 -136.33984375 423.19140625 C-137.12488281 422.546875 -137.90992188 421.90234375 -138.71875 421.23828125 C-138.71875 420.57828125 -138.71875 419.91828125 -138.71875 419.23828125 C-139.26917969 419.00367188 -139.81960937 418.7690625 -140.38671875 418.52734375 C-148.38394512 414.10676636 -154.90559131 406.1515938 -160.71875 399.23828125 C-162.02815924 397.77717215 -163.34079491 396.31894957 -164.65625 394.86328125 C-170.97083246 387.73665075 -176.75470775 380.37045964 -182.09375 372.48828125 C-182.52284668 371.86228027 -182.95194336 371.2362793 -183.39404297 370.59130859 C-185.856326 366.89247783 -187.35425138 363.49755733 -188.71875 359.23828125 C-189.37875 358.90828125 -190.03875 358.57828125 -190.71875 358.23828125 C-192.06579062 355.98726635 -193.31735809 353.74730703 -194.53125 351.42578125 C-194.88799805 350.75087646 -195.24474609 350.07597168 -195.61230469 349.38061523 C-198.20503183 344.40222716 -200.47468706 339.34899482 -202.515625 334.1171875 C-203.47381977 331.82436429 -204.51003165 329.71749277 -205.66796875 327.52734375 C-208.02422036 322.87251103 -209.41358221 318.07075412 -210.78125 313.05078125 C-211.03729004 312.13039063 -211.29333008 311.21 -211.55712891 310.26171875 C-216.93108576 290.74991107 -216.93108576 290.74991107 -216.71875 284.23828125 C-217.37875 284.23828125 -218.03875 284.23828125 -218.71875 284.23828125 C-220.45786871 274.83390078 -221.01380781 265.75936785 -220.984375 256.20703125 C-220.98572781 254.7994378 -220.98767342 253.39184481 -220.99017334 251.98425293 C-220.99309571 249.05635054 -220.98892133 246.12857147 -220.97949219 243.20068359 C-220.96809936 239.48611375 -220.97467453 235.77183315 -220.98663712 232.05727386 C-220.99393461 229.15726625 -220.99153203 226.2573249 -220.98638153 223.35731506 C-220.98443715 221.33419604 -220.99040943 219.31107422 -220.99664307 217.28796387 C-220.95561309 209.09796151 -220.20821375 201.29263874 -218.71875 193.23828125 C-218.05875 193.23828125 -217.39875 193.23828125 -216.71875 193.23828125 C-216.6784668 192.64692383 -216.63818359 192.05556641 -216.59667969 191.44628906 C-216.04519047 184.74216657 -214.71812133 178.47464687 -212.96875 171.98828125 C-212.56668335 170.47874878 -212.56668335 170.47874878 -212.15649414 168.9387207 C-209.36836134 158.657223 -206.22467156 148.67985529 -201.2421875 139.22265625 C-199.93905728 136.66985756 -198.71253959 134.10384712 -197.5078125 131.50390625 C-197.11110352 130.65014404 -196.71439453 129.79638184 -196.30566406 128.91674805 C-195.50867382 127.19641153 -194.71621985 125.47396491 -193.92871094 123.74926758 C-193.5577832 122.95286865 -193.18685547 122.15646973 -192.8046875 121.3359375 C-192.4751709 120.61929932 -192.1456543 119.90266113 -191.80615234 119.16430664 C-190.66285747 117.13928345 -189.3789325 115.8500958 -187.71875 114.23828125 C-185.81965851 111.14425579 -183.9997579 108.02147451 -182.2109375 104.86328125 C-179.79326649 100.70687424 -177.1862838 97.61545586 -173.71875 94.23828125 C-172.69263051 92.58756729 -171.69279315 90.92024966 -170.71875 89.23828125 C-160.19067437 75.48610684 -147.54558473 61.34273868 -132.98046875 51.84375 C-130.58607324 50.2453839 -130.58607324 50.2453839 -128.375 47.83984375 C-125.32726212 44.85485342 -122.12859796 42.6849308 -118.53125 40.42578125 C-117.58862305 39.81573242 -117.58862305 39.81573242 -116.62695312 39.19335938 C-111.98325893 36.23828125 -111.98325893 36.23828125 -109.71875 36.23828125 C-109.71875 35.57828125 -109.71875 34.91828125 -109.71875 34.23828125 C-105.71930312 32.15388483 -101.71909309 30.07095708 -97.71875 27.98828125 C-96.59339844 27.40175781 -95.46804687 26.81523438 -94.30859375 26.2109375 C-92.09719597 25.05997608 -89.88399928 23.91246388 -87.66894531 22.76855469 C-85.9738219 21.88929008 -84.28283838 21.00170104 -82.60449219 20.09082031 C-76.35888266 16.77066357 -69.67069237 14.69352917 -62.96875 12.48828125 C-61.75058594 12.07707031 -60.53242188 11.66585937 -59.27734375 11.2421875 C-58.10816406 10.85417969 -56.93898437 10.46617188 -55.734375 10.06640625 C-54.67508789 9.71481445 -53.61580078 9.36322266 -52.52441406 9.00097656 C-49.71875 8.23828125 -49.71875 8.23828125 -45.71875 8.23828125 C-45.71875 7.57828125 -45.71875 6.91828125 -45.71875 6.23828125 C-41.88654918 5.42037856 -38.05280471 4.60994512 -34.21875 3.80078125 C-33.14109375 3.57068359 -32.0634375 3.34058594 -30.953125 3.10351562 C-29.89609375 2.88115234 -28.8390625 2.65878906 -27.75 2.4296875 C-26.78642578 2.22545166 -25.82285156 2.02121582 -24.83007812 1.81079102 C-16.51304999 0.28038997 -8.44584469 0.04945735 0 0 Z " fill="#000000" transform="translate(232.71875,22.76171875)"/>
<path d="M0 0 C0.66 0 1.32 0 2 0 C3.27416992 1.80639648 3.27416992 1.80639648 4.73046875 4.37109375 C5.55260864 5.80267822 5.55260864 5.80267822 6.39135742 7.26318359 C6.98408447 8.31070801 7.57681152 9.35823242 8.1875 10.4375 C9.45692498 12.64794481 10.72780511 14.85755447 12 17.06640625 C12.49206184 17.92316956 12.49206184 17.92316956 12.99406433 18.79724121 C16.48512253 24.86742638 20.07934419 30.87394498 23.6875 36.875 C24.30705566 37.91164795 24.92661133 38.9482959 25.56494141 40.01635742 C28.46500469 44.85502916 31.40134051 49.65878611 34.4609375 54.3984375 C34.98727783 55.22359863 35.51361816 56.04875977 36.0559082 56.89892578 C37.03094065 58.42048833 38.02080705 59.93268893 39.02807617 61.43310547 C40.31640625 63.453125 40.31640625 63.453125 42 67 C40.81003608 71.17323516 38.46701897 74.803956 36.24609375 78.50390625 C35.87354462 79.13077332 35.50099548 79.75764038 35.11715698 80.40350342 C33.89424497 82.45869645 32.66600341 84.51064517 31.4375 86.5625 C30.57752916 88.00468878 29.7177498 89.44699177 28.8581543 90.8894043 C23.04302523 100.6357109 17.16741272 110.34476217 11.26199341 120.03656006 C5.39346418 129.66842661 -0.38202479 139.3528466 -6.11962891 149.06323242 C-12.41325184 159.71236557 -18.77582552 170.31929632 -25.14990234 180.92041016 C-26.99454211 183.99091505 -28.83573677 187.06345817 -30.67578125 190.13671875 C-38.27983404 202.83356908 -45.93042253 215.50101986 -53.63037109 228.13989258 C-53.98196289 228.71762421 -54.33355469 229.29535583 -54.69580078 229.89059448 C-55.65126501 231.46054423 -56.60758644 233.02997221 -57.56396484 234.59936523 C-58.98281219 236.90281751 -58.98281219 236.90281751 -60 239 C-14.46 239 31.08 239 78 239 C71.59038266 226.7149001 65.17809291 214.43576776 58.71484375 202.1796875 C56.60854561 198.17188131 54.5218858 194.15406534 52.44140625 190.1328125 C52.13156799 189.53412354 51.82172974 188.93543457 51.50250244 188.31860352 C49.96918834 185.35505025 48.43773996 182.39056287 46.90869141 179.42480469 C43.99585585 173.7888298 41.04247463 168.19973974 37.85864258 162.71142578 C37 161 37 161 37 159 C44.5178736 158.62743805 52.03478217 158.34411607 59.55981255 158.17100525 C63.05590952 158.08784845 66.54565098 157.97542395 70.03808594 157.79296875 C92.38047329 156.65708631 92.38047329 156.65708631 98.1434021 160.38742065 C101.6061485 163.98205227 103.41562769 168.18976323 105.13549805 172.81951904 C106.49388674 176.24570064 108.43757745 179.25886002 110.37890625 182.37890625 C111.07885236 183.5683575 111.77451107 184.76034231 112.46582031 185.95483398 C114.64508233 189.70477047 116.83149917 193.45048737 119.01953125 197.1953125 C119.3736911 197.80191208 119.72785095 198.40851166 120.09274292 199.03349304 C122.61610172 203.35260745 125.16456763 207.65530017 127.75 211.9375 C131.30769374 217.83271506 134.81502962 223.75636467 138.3125 229.6875 C142.99759138 237.63051301 147.71944054 245.55013463 152.4753418 253.45092773 C156.78271867 260.61525992 161.02120892 267.81930837 165.2565918 275.02636719 C169.08419378 281.51485339 173.02186451 287.92446232 177.10595703 294.25488281 C180 298.78965262 180 298.78965262 180 301 C65.16 301 -49.68 301 -168 301 C-166.5825624 297.456406 -165.18248653 294.32442425 -163.3828125 291 C-162.86436768 290.04109863 -162.34592285 289.08219727 -161.81176758 288.09423828 C-161.25513428 287.07313965 -160.69850098 286.05204102 -160.125 285 C-159.54709717 283.9363623 -158.96919434 282.87272461 -158.3737793 281.77685547 C-153.63911355 273.09717254 -148.75836011 264.5070859 -143.828125 255.9375 C-141.19597129 251.35705389 -138.61843261 246.74832227 -136.0625 242.125 C-132.35206304 235.41474634 -128.59372696 228.73311219 -124.8125 222.0625 C-119.37606448 212.46651417 -114.0061333 202.83483778 -108.6574707 193.18969727 C-103.88784236 184.59066358 -99.0904093 176.00759939 -94.27856445 167.43212891 C-91.21774631 161.97331746 -88.16927294 156.5079759 -85.140625 151.03125 C-73.12856102 129.31706937 -73.12856102 129.31706937 -67.31933594 119.63671875 C-62.43282264 111.4732625 -58.01969451 103.04152906 -53.51000977 94.66650391 C-48.44449119 85.27158311 -43.31259927 75.91815639 -38.0625 66.625 C-37.28410767 65.24586426 -37.28410767 65.24586426 -36.48999023 63.83886719 C-34.04680189 59.53193694 -31.56344704 55.25761093 -28.99609375 51.0234375 C-25.82743598 45.77178107 -22.90177456 40.40258355 -20 35 C-4.21109733 5.7227733 -4.21109733 5.7227733 0 0 Z " fill="#FDFDFD" transform="translate(248,69)"/>
<path d="M0 0 C0.65775925 -0.00407553 1.31551849 -0.00815105 1.99320984 -0.01235008 C5.48977325 -0.03313241 8.9862986 -0.04745544 12.48291016 -0.05688477 C15.32004903 -0.06565105 18.15668306 -0.08630963 20.99365234 -0.1184082 C41.61665496 -0.34657988 61.22579498 1.03270233 81.28125 6.23828125 C81.28125 6.89828125 81.28125 7.55828125 81.28125 8.23828125 C82.35503906 8.3259375 83.42882812 8.41359375 84.53515625 8.50390625 C90.33073422 9.24090147 95.71229831 11.09183931 101.21875 12.98828125 C102.3430542 13.37516113 103.4673584 13.76204102 104.62573242 14.16064453 C117.11222154 18.63717909 128.76242956 24.69774923 140.28125 31.23828125 C141.67476685 32.00615967 141.67476685 32.00615967 143.09643555 32.78955078 C143.81742432 33.26763184 144.53841309 33.74571289 145.28125 34.23828125 C145.28125 34.89828125 145.28125 35.55828125 145.28125 36.23828125 C145.9515625 36.46902344 146.621875 36.69976562 147.3125 36.9375 C151.09360989 38.59422315 154.36283795 40.75266067 157.78125 43.05078125 C158.43222656 43.47681641 159.08320313 43.90285156 159.75390625 44.34179688 C163.72047865 46.99018511 166.91157454 49.84382876 170.28125 53.23828125 C171.84228157 54.4950307 173.41525173 55.73701251 174.99609375 56.96875 C180.30461939 61.16424526 185.09083701 65.74234698 189.84375 70.55078125 C190.66931396 71.3816626 191.49487793 72.21254395 192.34545898 73.06860352 C206.46652823 87.41046731 206.46652823 87.41046731 209.24609375 93.2734375 C210.20626786 95.35111126 210.20626786 95.35111126 212.08984375 96.953125 C215.19048 100.18640879 217.1554515 103.91302455 219.34375 107.80078125 C220.20526524 109.3253944 221.07100556 110.84762953 221.94140625 112.3671875 C222.31918213 113.0382251 222.69695801 113.7092627 223.08618164 114.40063477 C224.21796388 116.28244128 224.21796388 116.28244128 225.81298828 117.75805664 C228.38444436 120.35046406 229.60415531 123.82356452 231.09375 127.11328125 C231.80722724 128.66799832 232.5207694 130.2226856 233.234375 131.77734375 C233.75741211 132.92444824 233.75741211 132.92444824 234.29101562 134.09472656 C235.13094613 135.91291932 236.00696545 137.71437239 236.890625 139.51171875 C243.10375127 152.23860644 247.4216541 165.92008975 250.71875 179.67578125 C250.96455811 180.69430176 250.96455811 180.69430176 251.21533203 181.73339844 C252.09439005 185.63268374 252.43550824 189.24607787 252.28125 193.23828125 C252.94125 193.23828125 253.60125 193.23828125 254.28125 193.23828125 C256.02036871 202.64266172 256.57630781 211.71719465 256.546875 221.26953125 C256.54822781 222.6771247 256.55017342 224.08471769 256.55267334 225.49230957 C256.55559571 228.42021196 256.55142133 231.34799103 256.54199219 234.27587891 C256.53059936 237.99044875 256.53717453 241.70472935 256.54913712 245.41928864 C256.55643461 248.31929625 256.55403203 251.2192376 256.54888153 254.11924744 C256.54693715 256.14236646 256.55290943 258.16548828 256.55914307 260.18859863 C256.51811309 268.37860099 255.77071375 276.18392376 254.28125 284.23828125 C253.62125 284.23828125 252.96125 284.23828125 252.28125 284.23828125 C252.219375 285.49640625 252.1575 286.75453125 252.09375 288.05078125 C250.43798716 304.51512724 244.60356487 322.4187904 236.96875 336.97265625 C234.85982207 341.05382233 232.91274497 345.20162424 230.96875 349.36328125 C227.32697148 357.1468383 227.32697148 357.1468383 226.28125 359.23828125 C225.62125 359.23828125 224.96125 359.23828125 224.28125 359.23828125 C224.04535156 360.08003906 223.80945313 360.92179687 223.56640625 361.7890625 C222.08275171 365.77102894 220.10451269 368.9350718 217.71875 372.42578125 C217.27619873 373.08070557 216.83364746 373.73562988 216.37768555 374.41040039 C212.34247863 380.30104018 207.94375683 385.83082503 203.28125 391.23828125 C202.69859375 391.92019531 202.1159375 392.60210937 201.515625 393.3046875 C199.79001842 395.30042408 198.0394947 397.271245 196.28125 399.23828125 C195.4975 400.12644531 194.71375 401.01460938 193.90625 401.9296875 C181.5319325 415.79420483 181.5319325 415.79420483 176.1796875 418.171875 C174.1416326 419.07198731 174.1416326 419.07198731 173.4453125 421.05859375 C171.67559286 424.37236407 168.69576723 426.05416429 165.65625 428.11328125 C164.36914113 429.00426931 163.08267715 429.89618972 161.796875 430.7890625 C161.18134766 431.21396973 160.56582031 431.63887695 159.93164062 432.07666016 C158.03049119 433.41477687 156.2177541 434.84423403 154.40625 436.30078125 C150.47289371 439.29392737 146.19960578 441.68214373 141.90625 444.11328125 C141.19098145 444.5194165 140.47571289 444.92555176 139.73876953 445.34399414 C134.53464856 448.23828125 134.53464856 448.23828125 132.28125 448.23828125 C132.28125 448.89828125 132.28125 449.55828125 132.28125 450.23828125 C129.1611582 451.68660334 126.03434784 453.11984288 122.90625 454.55078125 C122.03613281 454.95490234 121.16601562 455.35902344 120.26953125 455.77539062 C114.38674955 458.45532451 108.52054759 460.54787667 102.28125 462.23828125 C102.28125 462.89828125 102.28125 463.55828125 102.28125 464.23828125 C78.62563051 471.16558118 78.62563051 471.16558118 66.71875 473.55078125 C65.99719727 473.69741211 65.27564453 473.84404297 64.53222656 473.99511719 C62.12080375 474.45591914 59.70647453 474.85630784 57.28125 475.23828125 C56.1770874 475.41488281 55.0729248 475.59148437 53.93530273 475.7734375 C42.1217635 477.46551039 30.38897708 477.63681153 18.46875 477.61328125 C16.91279617 477.61246552 16.91279617 477.61246552 15.32540894 477.6116333 C-13.1528719 477.54308032 -39.51234779 472.58256033 -66.71875 464.23828125 C-66.71875 463.57828125 -66.71875 462.91828125 -66.71875 462.23828125 C-67.6166626 461.99501099 -67.6166626 461.99501099 -68.53271484 461.74682617 C-75.0924114 459.88559959 -81.16621917 457.41990112 -87.34375 454.55078125 C-88.70693359 453.92719727 -88.70693359 453.92719727 -90.09765625 453.29101562 C-92.30740825 452.27918181 -94.51428786 451.26157525 -96.71875 450.23828125 C-96.71875 449.57828125 -96.71875 448.91828125 -96.71875 448.23828125 C-97.53472656 448.00625 -98.35070312 447.77421875 -99.19140625 447.53515625 C-103.49235673 445.95385441 -107.22664032 443.82311565 -111.15625 441.48828125 C-111.88134766 441.070625 -112.60644531 440.65296875 -113.35351562 440.22265625 C-117.6187335 437.70874526 -121.3613425 434.9808052 -125.05541992 431.68847656 C-128.60770713 428.59137015 -132.52116446 425.94647793 -136.33984375 423.19140625 C-137.12488281 422.546875 -137.90992188 421.90234375 -138.71875 421.23828125 C-138.71875 420.57828125 -138.71875 419.91828125 -138.71875 419.23828125 C-139.26917969 419.00367188 -139.81960937 418.7690625 -140.38671875 418.52734375 C-148.38394512 414.10676636 -154.90559131 406.1515938 -160.71875 399.23828125 C-162.02815924 397.77717215 -163.34079491 396.31894957 -164.65625 394.86328125 C-170.97083246 387.73665075 -176.75470775 380.37045964 -182.09375 372.48828125 C-182.52284668 371.86228027 -182.95194336 371.2362793 -183.39404297 370.59130859 C-185.856326 366.89247783 -187.35425138 363.49755733 -188.71875 359.23828125 C-189.37875 358.90828125 -190.03875 358.57828125 -190.71875 358.23828125 C-192.06579062 355.98726635 -193.31735809 353.74730703 -194.53125 351.42578125 C-194.88799805 350.75087646 -195.24474609 350.07597168 -195.61230469 349.38061523 C-198.20503183 344.40222716 -200.47468706 339.34899482 -202.515625 334.1171875 C-203.47381977 331.82436429 -204.51003165 329.71749277 -205.66796875 327.52734375 C-208.02422036 322.87251103 -209.41358221 318.07075412 -210.78125 313.05078125 C-211.03729004 312.13039063 -211.29333008 311.21 -211.55712891 310.26171875 C-216.93108576 290.74991107 -216.93108576 290.74991107 -216.71875 284.23828125 C-217.37875 284.23828125 -218.03875 284.23828125 -218.71875 284.23828125 C-220.45786871 274.83390078 -221.01380781 265.75936785 -220.984375 256.20703125 C-220.98572781 254.7994378 -220.98767342 253.39184481 -220.99017334 251.98425293 C-220.99309571 249.05635054 -220.98892133 246.12857147 -220.97949219 243.20068359 C-220.96809936 239.48611375 -220.97467453 235.77183315 -220.98663712 232.05727386 C-220.99393461 229.15726625 -220.99153203 226.2573249 -220.98638153 223.35731506 C-220.98443715 221.33419604 -220.99040943 219.31107422 -220.99664307 217.28796387 C-220.95561309 209.09796151 -220.20821375 201.29263874 -218.71875 193.23828125 C-218.05875 193.23828125 -217.39875 193.23828125 -216.71875 193.23828125 C-216.6784668 192.64692383 -216.63818359 192.05556641 -216.59667969 191.44628906 C-216.04519047 184.74216657 -214.71812133 178.47464687 -212.96875 171.98828125 C-212.56668335 170.47874878 -212.56668335 170.47874878 -212.15649414 168.9387207 C-209.36836134 158.657223 -206.22467156 148.67985529 -201.2421875 139.22265625 C-199.93905728 136.66985756 -198.71253959 134.10384712 -197.5078125 131.50390625 C-197.11110352 130.65014404 -196.71439453 129.79638184 -196.30566406 128.91674805 C-195.50867382 127.19641153 -194.71621985 125.47396491 -193.92871094 123.74926758 C-193.5577832 122.95286865 -193.18685547 122.15646973 -192.8046875 121.3359375 C-192.4751709 120.61929932 -192.1456543 119.90266113 -191.80615234 119.16430664 C-190.66285747 117.13928345 -189.3789325 115.8500958 -187.71875 114.23828125 C-185.81965851 111.14425579 -183.9997579 108.02147451 -182.2109375 104.86328125 C-179.79326649 100.70687424 -177.1862838 97.61545586 -173.71875 94.23828125 C-172.69263051 92.58756729 -171.69279315 90.92024966 -170.71875 89.23828125 C-160.19067437 75.48610684 -147.54558473 61.34273868 -132.98046875 51.84375 C-130.58607324 50.2453839 -130.58607324 50.2453839 -128.375 47.83984375 C-125.32726212 44.85485342 -122.12859796 42.6849308 -118.53125 40.42578125 C-117.58862305 39.81573242 -117.58862305 39.81573242 -116.62695312 39.19335938 C-111.98325893 36.23828125 -111.98325893 36.23828125 -109.71875 36.23828125 C-109.71875 35.57828125 -109.71875 34.91828125 -109.71875 34.23828125 C-105.71930312 32.15388483 -101.71909309 30.07095708 -97.71875 27.98828125 C-96.59339844 27.40175781 -95.46804687 26.81523438 -94.30859375 26.2109375 C-92.09719597 25.05997608 -89.88399928 23.91246388 -87.66894531 22.76855469 C-85.9738219 21.88929008 -84.28283838 21.00170104 -82.60449219 20.09082031 C-76.35888266 16.77066357 -69.67069237 14.69352917 -62.96875 12.48828125 C-61.75058594 12.07707031 -60.53242188 11.66585937 -59.27734375 11.2421875 C-58.10816406 10.85417969 -56.93898437 10.46617188 -55.734375 10.06640625 C-54.67508789 9.71481445 -53.61580078 9.36322266 -52.52441406 9.00097656 C-49.71875 8.23828125 -49.71875 8.23828125 -45.71875 8.23828125 C-45.71875 7.57828125 -45.71875 6.91828125 -45.71875 6.23828125 C-41.88654918 5.42037856 -38.05280471 4.60994512 -34.21875 3.80078125 C-33.14109375 3.57068359 -32.0634375 3.34058594 -30.953125 3.10351562 C-29.89609375 2.88115234 -28.8390625 2.65878906 -27.75 2.4296875 C-26.78642578 2.22545166 -25.82285156 2.02121582 -24.83007812 1.81079102 C-16.51304999 0.28038997 -8.44584469 0.04945735 0 0 Z M-47.38208008 28.50146484 C-49.89668641 29.2943895 -52.42326569 30.03854333 -54.953125 30.78125 C-60.74117067 32.51379116 -66.1942078 34.80137381 -71.71875 37.23828125 C-72.87375 37.74230469 -74.02875 38.24632813 -75.21875 38.765625 C-90.89069198 45.74865123 -105.22246346 54.67032619 -118.71875 65.23828125 C-119.74871094 66.04265625 -120.77867188 66.84703125 -121.83984375 67.67578125 C-137.01472391 80.04765807 -151.41517321 94.21054403 -162.71875 110.23828125 C-163.13237793 110.81819824 -163.54600586 111.39811523 -163.97216797 111.99560547 C-172.89067541 124.60594428 -180.63544038 138.03734037 -186.71875 152.23828125 C-187.45738281 153.93210938 -187.45738281 153.93210938 -188.2109375 155.66015625 C-192.31722933 165.5430959 -195.31725952 175.61895573 -198.09765625 185.94726562 C-198.59837732 187.79426505 -199.12349216 189.63464169 -199.65625 191.47265625 C-208.14904824 222.08211658 -208.12199932 260.15443103 -199.44360352 290.66479492 C-198.8176128 292.88728335 -198.25058963 295.10727751 -197.7265625 297.35546875 C-195.70190451 305.97370322 -193.200968 314.07461201 -189.71875 322.23828125 C-189.40808594 322.97030762 -189.09742188 323.70233398 -188.77734375 324.45654297 C-173.33647664 360.5708524 -150.00239553 394.99405647 -117.71875 418.23828125 C-116.51678122 419.14173306 -115.3149728 420.04539823 -114.11328125 420.94921875 C-100.18433712 431.25593112 -84.95694026 440.51062659 -68.5390625 446.2421875 C-65.76154162 447.22316787 -63.14743533 448.39108226 -60.46875 449.61328125 C-22.28360725 465.47788184 26.678277 469.34915855 66.70776367 457.96313477 C68.9302521 457.33714405 71.15024626 456.77012088 73.3984375 456.24609375 C82.01667197 454.22143576 90.11758076 451.72049925 98.28125 448.23828125 C99.01327637 447.92761719 99.74530273 447.61695313 100.49951172 447.296875 C136.59362491 431.8646429 169.59669479 409.03222222 193.28125 377.23828125 C193.72210938 376.65739746 194.16296875 376.07651367 194.6171875 375.47802734 C207.21764439 358.77816505 216.86004335 340.57424096 224.52197266 321.13867188 C225.14424514 319.58118987 225.80683756 318.03987314 226.48046875 316.50390625 C229.837065 308.80894251 231.69239611 300.60030048 233.71826172 292.4765625 C234.07334256 291.06486207 234.43823565 289.65555966 234.81689453 288.25 C244.44199002 251.99271574 240.1661014 211.72361532 229.84375 176.18408203 C229.3737722 174.55833416 228.91934136 172.92810236 228.46875 171.296875 C226.60810725 164.71062253 224.04122806 158.49523424 221.28125 152.23828125 C220.52521484 150.50578125 220.52521484 150.50578125 219.75390625 148.73828125 C209.43380509 125.57235362 195.04070162 105.26810512 177.28125 87.23828125 C176.15189186 86.07074945 175.02297977 84.902786 173.89453125 83.734375 C167.40152041 77.06556751 160.71554905 70.86423729 153.28125 65.23828125 C152.69456543 64.79162109 152.10788086 64.34496094 151.50341797 63.88476562 C134.80924804 51.29278647 116.60792494 41.65582764 97.18164062 33.99755859 C95.62415862 33.37528611 94.08284189 32.71269369 92.546875 32.0390625 C84.85223395 28.68260701 76.64442526 26.82862301 68.52148438 24.80126953 C67.10359884 24.44494389 65.68786944 24.07982495 64.27539062 23.70263672 C28.55867057 14.28788196 -12.56643413 17.40600089 -47.38208008 28.50146484 Z " fill="#F8F8F8" transform="translate(232.71875,22.76171875)"/>
<path d="M0 0 C4.03269304 1.34423101 4.53312577 3.11533027 6.65234375 6.7578125 C6.99374893 7.33908905 7.33515411 7.9203656 7.68690491 8.51925659 C8.77888503 10.38305023 9.85824701 12.25381354 10.9375 14.125 C11.65999544 15.36245353 12.38329422 16.59943839 13.10742188 17.8359375 C14.4848834 20.19155512 15.85526659 22.5510222 17.21826172 24.91503906 C18.26896522 26.73426206 19.32545094 28.55020232 20.39501953 30.35839844 C23 34.78376816 23 34.78376816 23 37 C4.85 37 -13.3 37 -32 37 C-30.33963587 33.67927175 -29.23650172 31.9653976 -26.76953125 29.390625 C-25.81143555 28.38128906 -25.81143555 28.38128906 -24.83398438 27.3515625 C-24.16689453 26.65804687 -23.49980469 25.96453125 -22.8125 25.25 C-17.74024846 19.94053869 -12.80579716 14.55189923 -8 9 C-6.52322165 7.33121676 -5.04457339 5.66408241 -3.5625 4 C-2.88316406 3.236875 -2.20382812 2.47375 -1.50390625 1.6875 C-1.00761719 1.130625 -0.51132812 0.57375 0 0 Z " fill="#FAFAFA" transform="translate(317,186)"/>
<path d="M0 0 C3.58031426 3.26898258 6.0951821 7.00813729 8.6875 11.0625 C13.056783 17.74631335 17.76434438 23.96029727 23 30 C23.66 30.77085937 24.32 31.54171875 25 32.3359375 C32.25702187 40.61004198 40.17518383 48.26883381 48 56 C45 56 45 56 43.3515625 54.609375 C42.78179687 53.99578125 42.21203125 53.3821875 41.625 52.75 C39.63486481 50.66410516 37.78518978 48.83352208 35.5 47.0625 C32.61167694 44.67963348 30.30999837 42.0414429 27.8828125 39.19921875 C25.97781936 36.97409191 24.02515837 34.7993176 22.0625 32.625 C15.69652032 25.44036266 9.8811648 18.00939197 4.5 10.0625 C4.05414551 9.4113623 3.60829102 8.76022461 3.14892578 8.08935547 C0 3.35916165 0 3.35916165 0 0 Z " fill="#9D9D9D" transform="translate(46,385)"/>
<path d="M0 0 C0.33 0 0.66 0 1 0 C0.43247201 5.90229107 -0.77147365 11.14674394 -2.6875 16.75 C-2.9551416 17.54075928 -3.2227832 18.33151855 -3.49853516 19.14624023 C-5.39555923 24.60115685 -7.6352459 29.72477219 -10.34375 34.83203125 C-12.47840278 38.91505814 -14.42531022 43.07621647 -16.375 47.25 C-16.91229736 48.39674194 -16.91229736 48.39674194 -17.46044922 49.56665039 C-18.30828651 51.3771492 -19.15433943 53.18848345 -20 55 C-20.66 55 -21.32 55 -22 55 C-19.96475237 47.93649351 -16.42507316 41.49439844 -13.1640625 34.9375 C-10.2324168 28.93081288 -7.83566176 22.95983032 -5.8359375 16.57983398 C-5.12119572 14.37402895 -4.32141829 12.30083565 -3.375 10.1875 C-1.91912887 6.81252601 -0.94106816 3.54710307 0 0 Z " fill="#9B9B9B" transform="translate(480,325)"/>
<path d="M0 0 C1.83071004 2.74606506 2.52727175 4.45582531 3.375 7.5625 C7.73088418 22.5184176 14.77000027 37.0276601 21.96875 50.8125 C23 53 23 53 23 55 C22.34 55 21.68 55 21 55 C18.52840054 49.82870984 16.06210368 44.65498055 13.60546875 39.4765625 C12.14579416 36.40020279 10.6776457 33.32940516 9.17578125 30.2734375 C6.37511805 24.46628809 4.0813546 18.634733 2.125 12.5 C1.90932373 11.82864014 1.69364746 11.15728027 1.47143555 10.46557617 C0.38152425 6.88392241 -0.24487797 3.74519245 0 0 Z " fill="#9B9B9B" transform="translate(20,325)"/>
<path d="M0 0 C-2.5531845 1.702123 -4.10138347 2.45163036 -6.9375 3.3125 C-20.59851927 7.77145669 -33.69664095 14.29196297 -45.94140625 21.8046875 C-48 23 -48 23 -50 23 C-50 22.34 -50 21.68 -50 21 C-46.00055312 18.91560358 -42.00034309 16.83267583 -38 14.75 C-36.87464844 14.16347656 -35.74929687 13.57695313 -34.58984375 12.97265625 C-31.39573008 11.31022282 -28.19882315 9.65335087 -25 8 C-24.22760986 7.59885986 -23.45521973 7.19771973 -22.65942383 6.78442383 C-18.41663501 4.61444787 -14.17088504 2.80935841 -9.6875 1.1875 C-8.49511719 0.74792969 -7.30273438 0.30835938 -6.07421875 -0.14453125 C-3 -1 -3 -1 0 0 Z " fill="#A9A9A9" transform="translate(173,36)"/>
<path d="M0 0 C0.66 0.33 1.32 0.66 2 1 C-8.50060557 10.59338413 -8.50060557 10.59338413 -13.125 14.5625 C-20.42554201 20.9411813 -26.85251285 27.81318294 -32.859375 35.421875 C-35.0970026 38.11682795 -37.48946701 40.55969171 -40 43 C-39.49202442 38.7081247 -36.80020284 36.00016836 -34.0625 32.875 C-33.54324951 32.27679443 -33.02399902 31.67858887 -32.48901367 31.06225586 C-27.77622695 25.72118824 -22.82871443 20.61784247 -17.8125 15.5625 C-17.07717041 14.81790527 -16.34184082 14.07331055 -15.58422852 13.30615234 C-10.68712231 8.43689232 -5.54620201 4.11292302 0 0 Z " fill="#A1A1A1" transform="translate(100,74)"/>
<path d="M0 0 C9.19274419 4.18735341 16.56085108 12.22760065 23.5625 19.3125 C24.79758301 20.55773437 24.79758301 20.55773437 26.05761719 21.828125 C39.08372009 35.07641053 39.08372009 35.07641053 42 40 C41.67 40.99 41.34 41.98 41 43 C40.28714844 42.154375 39.57429688 41.30875 38.83984375 40.4375 C36.35384913 37.49111988 33.86227825 34.54952024 31.3671875 31.61083984 C30.26395022 30.31098992 29.16288266 29.00929863 28.0625 27.70703125 C20.83288631 19.2782749 12.99560891 11.75508595 4.25 4.91015625 C2 3 2 3 0 0 Z " fill="#A1A1A1" transform="translate(399,74)"/>
<path d="M0 0 C18.0331087 3.16370328 34.33509966 12.95935273 50 22 C50 22.66 50 23.32 50 24 C46.5285673 22.67216343 43.27807008 21.15437349 40.0078125 19.390625 C39.06228516 18.88587646 38.11675781 18.38112793 37.14257812 17.86108398 C36.14677734 17.32942627 35.15097656 16.79776855 34.125 16.25 C26.27199727 12.09925068 18.47217406 8.30206527 10.15625 5.18359375 C6.71677148 3.89378931 3.36730237 2.46681732 0 1 C0 0.67 0 0.34 0 0 Z " fill="#9E9E9E" transform="translate(328,35)"/>
<path d="M0 0 C0.6015625 1.796875 0.6015625 1.796875 1 4 C0.10201986 5.79596029 -0.80643325 7.58721559 -1.7578125 9.35546875 C-6.27780096 18.97821148 -8.58377551 29.89293922 -11.10546875 40.18359375 C-11.54826172 41.57771484 -11.54826172 41.57771484 -12 43 C-12.99 43.495 -12.99 43.495 -14 44 C-13.44342863 37.34796633 -12.16124037 31.36690441 -10.1875 25 C-9.8152832 23.74316406 -9.8152832 23.74316406 -9.43554688 22.4609375 C-7.0442017 14.59931419 -3.7462253 7.30513933 0 0 Z " fill="#A8A8A8" transform="translate(32,162)"/>
<path d="M0 0 C0 3.57933154 -0.53105563 3.95082548 -2.875 6.5 C-3.51308594 7.19996094 -4.15117187 7.89992188 -4.80859375 8.62109375 C-5.53175781 9.40613281 -6.25492187 10.19117188 -7 11 C-7.79535156 11.89847656 -8.59070313 12.79695313 -9.41015625 13.72265625 C-21.58328888 27.40096757 -21.58328888 27.40096757 -29 31 C-23.77872868 24.721256 -18.09848462 19.03524236 -12.27734375 13.31640625 C-7.95431904 9.03978252 -3.88868475 4.67626647 0 0 Z " fill="#A8A8A8" transform="translate(436,411)"/>
<path d="M0 0 C0.33 0.99 0.66 1.98 1 3 C-0.41275531 5.52320493 -1.85604898 7.82232989 -3.5 10.1875 C-3.95616699 10.85789307 -4.41233398 11.52828613 -4.88232422 12.21899414 C-8.26134687 17.11436656 -11.86466416 21.71403934 -16 26 C-16 21.83349787 -13.77149394 19.58481846 -11.375 16.375 C-10.45723153 15.12059705 -9.54056446 13.86538753 -8.625 12.609375 C-8.17640625 11.99642578 -7.7278125 11.38347656 -7.265625 10.75195312 C-4.73136503 7.24388029 -2.36013909 3.62655519 0 0 Z " fill="#9D9D9D" transform="translate(454,385)"/>
<path d="M0 0 C0.33 0.66 0.66 1.32 1 2 C0.04370117 4.07543945 0.04370117 4.07543945 -1.45703125 6.61328125 C-1.99263672 7.53173828 -2.52824219 8.45019531 -3.08007812 9.39648438 C-3.93762695 10.83991211 -3.93762695 10.83991211 -4.8125 12.3125 C-5.92611553 14.20269897 -7.0368914 16.0945744 -8.14453125 17.98828125 C-8.64315674 18.82915283 -9.14178223 19.67002441 -9.65551758 20.53637695 C-10.98406101 22.97079346 -12.02550333 25.40607232 -13 28 C-14.1897182 24.4308454 -13.79554261 23.92819134 -12.234375 20.65625 C-11.83863281 19.82222656 -11.44289062 18.98820312 -11.03515625 18.12890625 C-10.61105469 17.26136719 -10.18695313 16.39382812 -9.75 15.5 C-9.34136719 14.63246094 -8.93273438 13.76492187 -8.51171875 12.87109375 C-6.6555714 9.00959106 -5.11114331 5.97373619 -2 3 C-1.34 2.01 -0.68 1.02 0 0 Z " fill="#969696" transform="translate(47,134)"/>
<path d="M0 0 C0.66 0.33 1.32 0.66 2 1 C-2.64726188 5.53108033 -7.69928092 8.74697923 -13.3125 11.9375 C-14.03050781 12.3512085 -14.74851562 12.76491699 -15.48828125 13.19116211 C-17.2897839 14.19448479 -19.14196374 15.10570169 -21 16 C-21.66 15.67 -22.32 15.34 -23 15 C-22.44538086 14.65219482 -21.89076172 14.30438965 -21.31933594 13.94604492 C-18.79509033 12.36166115 -16.27253298 10.77460892 -13.75 9.1875 C-12.87730469 8.64029297 -12.00460937 8.09308594 -11.10546875 7.52929688 C-10.26113281 6.99755859 -9.41679687 6.46582031 -8.546875 5.91796875 C-7.38430176 5.18743286 -7.38430176 5.18743286 -6.19824219 4.44213867 C-4.06233223 3.04089254 -2.02554686 1.55547473 0 0 Z " fill="#9F9F9F" transform="translate(390,454)"/>
<path d="M0 0 C3 1 3 1 4.18261719 2.81005859 C4.7341748 3.96755615 4.7341748 3.96755615 5.296875 5.1484375 C5.69777344 5.98890625 6.09867187 6.829375 6.51171875 7.6953125 C7.12466797 9.02175781 7.12466797 9.02175781 7.75 10.375 C8.17410156 11.2515625 8.59820312 12.128125 9.03515625 13.03125 C12.1272371 19.61828869 12.1272371 19.61828869 11 23 C9.16002803 19.54515902 7.32916118 16.0855752 5.5 12.625 C4.97535156 11.64015625 4.45070313 10.6553125 3.91015625 9.640625 C3.16572266 8.22910156 3.16572266 8.22910156 2.40625 6.7890625 C1.94541016 5.91975098 1.48457031 5.05043945 1.00976562 4.15478516 C0 2 0 2 0 0 Z " fill="#969696" transform="translate(456,139)"/>
<path d="M0 0 C0 3.42352322 -0.36267574 3.78953914 -2.51953125 6.25 C-3.04740234 6.8584375 -3.57527344 7.466875 -4.11914062 8.09375 C-4.67794922 8.7228125 -5.23675781 9.351875 -5.8125 10 C-6.63331055 10.94359375 -6.63331055 10.94359375 -7.47070312 11.90625 C-9.90472055 14.691356 -12.3630321 17.404563 -15 20 C-14.4081802 16.83296429 -13.46412704 15.03088578 -11.34765625 12.6171875 C-10.81849609 12.00746094 -10.28933594 11.39773437 -9.74414062 10.76953125 C-9.18919922 10.14433594 -8.63425781 9.51914063 -8.0625 8.875 C-7.51142578 8.24207031 -6.96035156 7.60914062 -6.39257812 6.95703125 C-4.31220749 4.57585368 -2.23643169 2.23643169 0 0 Z " fill="#989898" transform="translate(75,97)"/>
<path d="M0 0 C7.48252838 1.37179687 14.05604954 3.92163279 21 7 C21 7.66 21 8.32 21 9 C17.99310884 8.01997622 14.9950926 7.0155035 12 6 C11.00613281 5.66355469 10.01226562 5.32710937 8.98828125 4.98046875 C8.00214844 4.63628906 7.01601563 4.29210938 6 3.9375 C4.6078125 3.45603516 4.6078125 3.45603516 3.1875 2.96484375 C1 2 1 2 0 0 Z " fill="#ACACAC" transform="translate(328,35)"/>
<path d="M0 0 C5.89994742 4.38714039 10.95654209 9.85394398 15 16 C14.67 16.99 14.34 17.98 14 19 C12.22776281 16.91784697 10.45717274 14.83433081 8.6875 12.75 C8.18798828 12.16347656 7.68847656 11.57695313 7.17382812 10.97265625 C0 2.51609065 0 2.51609065 0 0 Z " fill="#979797" transform="translate(426,98)"/>
<path d="M0 0 C4.1403898 1.47980598 7.58703856 3.51507353 11.25 5.9375 C12.30703125 6.62714844 13.3640625 7.31679687 14.453125 8.02734375 C17 10 17 10 18 13 C13.88955302 11.18351459 10.38136102 8.54661813 6.75 5.9375 C6.1003125 5.47794922 5.450625 5.01839844 4.78125 4.54492188 C3.16759306 3.39061476 1.58110319 2.19851004 0 1 C0 0.67 0 0.34 0 0 Z " fill="#A0A0A0" transform="translate(381,61)"/>
<path d="M0 0 C0 0.66 0 1.32 0 2 C-0.969375 2.515625 -1.93875 3.03125 -2.9375 3.5625 C-7.64854147 6.23659526 -11.79411367 9.60477203 -16 13 C-16.66 12.67 -17.32 12.34 -18 12 C-13.92779659 7.36611336 -6.379187 0 0 0 Z " fill="#A0A0A0" transform="translate(120,61)"/>
<path d="M0 0 C4.43170173 1.51896368 8.03024076 3.92639809 11.8125 6.625 C12.40998047 7.04523438 13.00746094 7.46546875 13.62304688 7.8984375 C15.08520565 8.92779728 16.54304899 9.9632823 18 11 C17.01 11.495 17.01 11.495 16 12 C13.76068938 10.84605431 11.68642811 9.65185139 9.5625 8.3125 C8.68368164 7.78366211 8.68368164 7.78366211 7.78710938 7.24414062 C4.49441972 5.19975783 2.07342427 3.29221129 0 0 Z " fill="#9E9E9E" transform="translate(109,454)"/>
<path d="M0 0 C1.9507829 2.92617435 2.71513462 5.02044581 3.625 8.375 C3.88539063 9.31085938 4.14578125 10.24671875 4.4140625 11.2109375 C4.97925133 13.90123635 5.10954217 16.26144571 5 19 C3 18 3 18 2.1484375 15.48828125 C1.89320313 14.44027344 1.63796875 13.39226562 1.375 12.3125 C1.11460937 11.27738281 0.85421875 10.24226562 0.5859375 9.17578125 C0.00698506 6.03785903 -0.1049677 3.18242993 0 0 Z " fill="#B2B2B2" transform="translate(478,187)"/>
<path d="M0 0 C5.29012124 4.40843437 10.18808428 9.07559794 15 14 C12 14 12 14 10.3515625 12.609375 C9.78179687 11.99578125 9.21203125 11.3821875 8.625 10.75 C6.49376997 8.50564736 4.53542405 6.64415459 2.0625 4.75 C1.381875 4.1725 0.70125 3.595 0 3 C0 2.01 0 1.02 0 0 Z " fill="#A8A8A8" transform="translate(79,427)"/>
<path d="M0 0 C-1.52763464 4.08596252 -4.11084191 5.79826179 -7.625 8.25 C-8.62789063 8.95640625 -9.63078125 9.6628125 -10.6640625 10.390625 C-11.43492187 10.92171875 -12.20578125 11.4528125 -13 12 C-13.66 11.67 -14.32 11.34 -15 11 C-12.87996003 9.16064138 -10.75442773 7.32843267 -8.625 5.5 C-8.02171875 4.97535156 -7.4184375 4.45070313 -6.796875 3.91015625 C-2.2265625 0 -2.2265625 0 0 0 Z " fill="#9F9F9F" transform="translate(407,442)"/>
<path d="M0 0 C0 3.71884228 -0.8740066 4.36147729 -3.3125 7.0625 C-4.23482422 8.10083984 -4.23482422 8.10083984 -5.17578125 9.16015625 C-7 11 -7 11 -10 13 C-8.48446596 9.52224821 -6.4226544 7.0442016 -3.875 4.25 C-3.15054687 3.45078125 -2.42609375 2.6515625 -1.6796875 1.828125 C-0.84824219 0.92320312 -0.84824219 0.92320312 0 0 Z " fill="#9A9A9A" transform="translate(436,411)"/>
<path d="M0 0 C3.23861303 1.44424635 5.61969163 3.25772247 8.25 5.625 C8.95640625 6.25664062 9.6628125 6.88828125 10.390625 7.5390625 C10.92171875 8.02117187 11.4528125 8.50328125 12 9 C8.23396179 9 7.22857351 7.92592757 4.3125 5.625 C3.10013672 4.68527344 3.10013672 4.68527344 1.86328125 3.7265625 C1.24839844 3.15679687 0.63351563 2.58703125 0 2 C0 1.34 0 0.68 0 0 Z " fill="#9F9F9F" transform="translate(94,442)"/>
<path d="M0 0 C0.66 0 1.32 0 2 0 C0.34832443 3.5786304 -1.78286492 6.74820188 -4 10 C-4.33 9.01 -4.66 8.02 -5 7 C-4.07421875 5.17578125 -4.07421875 5.17578125 -2.6875 3.3125 C-2.23761719 2.68988281 -1.78773437 2.06726563 -1.32421875 1.42578125 C-0.88722656 0.95527344 -0.45023438 0.48476562 0 0 Z " fill="#989898" transform="translate(55,121)"/>
<path d="M0 0 C4.04648443 1.34882814 4.95502599 3.34826069 7 7 C6.67 7.99 6.34 8.98 6 10 C4.99421411 8.71283353 3.99553202 7.42011342 3 6.125 C2.443125 5.40570313 1.88625 4.68640625 1.3125 3.9453125 C0 2 0 2 0 0 Z " fill="#969696" transform="translate(444,121)"/>
<path d="M0 0 C0 0.99 0 1.98 0 3 C-4.22222222 6 -4.22222222 6 -7 6 C-7 5.34 -7 4.68 -7 4 C-4.69 2.68 -2.38 1.36 0 0 Z " fill="#9E9E9E" transform="translate(130,53)"/>
</svg>
