<?xml version="1.0" encoding="UTF-8"?>
<svg version="1.1" xmlns="http://www.w3.org/2000/svg" width="40" height="40">
<path d="M0 0 C10.78572098 -0.11871077 10.78572098 -0.11871077 13.6875 2.5546875 C15.05804979 4.98338235 16 7.18176335 16 10 C16.88042969 9.9071875 17.76085937 9.814375 18.66796875 9.71875 C27.90426092 9.14468523 27.90426092 9.14468523 31.01171875 11.5703125 C33.16897339 14.82164757 33.98427838 17.21391916 34.0625 21.125 C31.82758621 27.17241379 31.82758621 27.17241379 29 30 C26.2421875 30.28125 26.2421875 30.28125 23.0625 30.3125 C19.89720379 30.29151031 19.89720379 30.29151031 17 31 C14.50181773 33.69906703 13.20001534 36.54646749 12 40 C7.57596439 40.46636979 3.40585867 40.70323258 -1 40 C-3.72916328 37.77427461 -5.14118031 35.41038543 -6 32 C-5.61764391 29.0039262 -4.4856685 27.03513468 -2.8125 24.5625 C-0.65889149 21.26097277 -0.65889149 21.26097277 -1.5625 18.4375 C-3.00205598 15.89742833 -3.00205598 15.89742833 -5 13.3125 C-6 10 -6 10 -4.85546875 7.39453125 C-3.32532773 4.85385213 -1.72849149 2.40941238 0 0 Z M-1.625 4.6875 C-3.11971297 8.28839943 -3.37510731 9.424721 -2 13 C-1.690625 13.928125 -1.38125 14.85625 -1.0625 15.8125 C0.78223796 18.23199882 0.78223796 18.23199882 3.421875 18.3125 C5.96630885 18.3125 8.46515047 18.21401169 11 18 C13.38831687 13.97787264 13.38831687 13.97787264 13.875 9.4375 C13.58625 8.633125 13.2975 7.82875 13 7 C12.67 6.071875 12.34 5.14375 12 4.1875 C9.65495937 1.62261181 8.92688027 1.54452623 5.5625 1.3125 C1.73265344 1.52492216 1.20543626 1.78967241 -1.625 4.6875 Z M18 12 C14.88826154 16.50222141 14.88826154 16.50222141 14.0625 21.6875 C15.10508969 24.25922124 16.11362952 25.95783553 18 28 C21.40968139 28.87661258 24.56811824 28.74581744 28 28 C30.87406891 25.48149733 30.87406891 25.48149733 32 22 C32.08024658 19.40110217 32.08024658 19.40110217 31 17 C30.690625 16.071875 30.38125 15.14375 30.0625 14.1875 C28.21776204 11.76800118 28.21776204 11.76800118 25.578125 11.6875 C23.03369115 11.6875 20.53484953 11.78598831 18 12 Z M-4 30 C-2.35 32.97 -0.7 35.94 1 39 C3.97 39 6.94 39 10 39 C11.65 36.03 13.3 33.06 15 30 C12.5625354 24.453522 12.5625354 24.453522 7.83984375 21.1875 C0.68818134 20.61441186 -1.05981611 23.92994293 -4 30 Z " fill="#2F2727" transform="translate(6,0)"/>
</svg>
