<?xml version="1.0" encoding="UTF-8"?>
<svg version="1.1" xmlns="http://www.w3.org/2000/svg" width="312" height="314">
<path d="M0 0 C102.96 0 205.92 0 312 0 C312 103.62 312 207.24 312 314 C209.04 314 106.08 314 0 314 C0 210.38 0 106.76 0 0 Z " fill="#020202" transform="translate(0,0)"/>
<path d="M0 0 C102.96 0 205.92 0 312 0 C312 103.62 312 207.24 312 314 C209.04 314 106.08 314 0 314 C0 210.38 0 106.76 0 0 Z M45.859375 60.79296875 C40.86654065 66.12162778 36.77549597 71.73575873 33 78 C32.65678711 78.56283691 32.31357422 79.12567383 31.95996094 79.70556641 C21.51920495 96.93233352 13.24286222 115.81424004 11 136 C10.89042969 136.84175781 10.78085938 137.68351562 10.66796875 138.55078125 C10.32583882 141.70293832 10.1453535 144.83195444 10 148 C9.96068359 148.81452637 9.92136719 149.62905273 9.88085938 150.46826172 C8.69769268 178.66873911 14.40157023 208.62041321 31 232 C32.06853614 233.74632092 33.13209697 235.49571077 34.1875 237.25 C53.81749654 268.11558666 85.66399778 289.41318053 121 298 C160.10535424 306.19783673 200.49416665 298.74875553 234.125 277.25 C241.1884813 272.36137807 247.63545197 266.75379819 254 261 C254.75152344 260.32195312 255.50304687 259.64390625 256.27734375 258.9453125 C276.87443399 239.31700155 288.05594555 214.10155849 295 187 C295.18079102 186.33145996 295.36158203 185.66291992 295.54785156 184.97412109 C304.11363271 152.93333137 296.27784924 115.75112095 280.46875 87.23828125 C279.02526949 84.79281027 277.52828057 82.39327185 276 80 C275.11441406 78.57494141 275.11441406 78.57494141 274.2109375 77.12109375 C269.96047205 70.30519287 269.96047205 70.30519287 265 64 C264.34 64 263.68 64 263 64 C262.79246094 63.46890625 262.58492187 62.9378125 262.37109375 62.390625 C256.89391102 52.84066537 246.02131453 44.91543617 237 39 C236.29004883 38.52643066 235.58009766 38.05286133 234.84863281 37.56494141 C222.79028843 29.36292425 222.79028843 29.36292425 209.421875 23.74609375 C207 23 207 23 203.69921875 21.5390625 C199.91039656 19.88253757 196.08020894 18.87896892 192.0625 17.9375 C190.72005208 17.61328125 189.37760417 17.2890625 188.03515625 16.96484375 C187.37370605 16.80790039 186.71225586 16.65095703 186.03076172 16.48925781 C183.93590405 15.98455779 181.84918872 15.45232227 179.76171875 14.91796875 C130.49939501 2.89652942 79.58503757 25.8899289 45.859375 60.79296875 Z " fill="#FDFDFD" transform="translate(0,0)"/>
<path d="M0 0 C1.3763562 0.0141394 1.3763562 0.0141394 2.78051758 0.02856445 C17.63542963 0.35809012 29.59665849 4.76500791 40.4296875 15.0546875 C47.55788291 22.5887588 50.625 31.04128063 50.625 41.375 C42.375 41.375 34.125 41.375 25.625 41.375 C24.635 39.065 23.645 36.755 22.625 34.375 C17.18288632 28.93288632 11.47893811 26.03156654 3.77709961 25.95751953 C2.7736853 25.97854736 2.7736853 25.97854736 1.75 26 C1.04818604 26.01015137 0.34637207 26.02030273 -0.37670898 26.03076172 C-9.01269134 26.2883734 -14.68390888 28.16991016 -21.0625 33.97265625 C-23.59354702 36.67695947 -23.5217262 39.03480542 -23.66479492 42.63012695 C-24.2427978 57.01063993 -27.09832451 71.47654182 -38.10546875 81.73828125 C-42.80183026 85.12515814 -50.50422082 90.375 -56.375 90.375 C-54.44469491 93.77375805 -52.40002292 96.6318682 -49.75 99.5 C-45.94896216 103.69568111 -42.3596607 108.02643363 -38.79296875 112.421875 C-36.18810144 115.60326383 -33.53804078 118.74236464 -30.875 121.875 C-27.33637197 126.04782853 -23.80573716 130.22655119 -20.3125 134.4375 C-19.59964844 135.29472656 -18.88679688 136.15195313 -18.15234375 137.03515625 C-16.57606119 139.11030626 -15.49467824 141.04000497 -14.375 143.375 C-18.92782178 143.62393457 -23.4766195 143.80439301 -28.03466797 143.92431641 C-29.58126858 143.97433166 -31.12740275 144.04237763 -32.67236328 144.12939453 C-45.4923102 144.83287774 -45.4923102 144.83287774 -50.08862305 141.27368164 C-52.1228256 138.7321638 -53.74700588 136.18912274 -55.375 133.375 C-56.62126608 131.75167351 -57.88936302 130.1446531 -59.1875 128.5625 C-60.17363281 127.32886719 -60.17363281 127.32886719 -61.1796875 126.0703125 C-64.14406617 122.43077285 -67.18118377 118.85558207 -70.22216797 115.2800293 C-76.06013835 108.40878083 -81.74247073 101.41566159 -87.375 94.375 C-94.305 94.045 -101.235 93.715 -108.375 93.375 C-108.375 109.875 -108.375 126.375 -108.375 143.375 C-116.625 143.375 -124.875 143.375 -133.375 143.375 C-133.375 118.625 -133.375 93.875 -133.375 68.375 C-99.875 68.125 -99.875 68.125 -89.33789062 68.07714844 C-86.19253517 68.04388586 -86.19253517 68.04388586 -83.04724121 68.00543213 C-81.65764927 67.99091777 -80.26796351 67.98405042 -78.8782959 67.98345947 C-69.46878534 67.97261963 -62.77441472 67.46104358 -55.0625 61.625 C-50.64676494 55.73735325 -50.20068741 50.21229444 -49.9375 43.0625 C-49.46943728 31.58689326 -46.45102083 22.81435919 -38.375 14.375 C-27.79219778 4.71626783 -14.20838557 -0.22749197 0 0 Z " fill="#FBFBFB" transform="translate(193.375,84.625)"/>
<path d="M0 0 C46.63962312 3.61695036 46.63962312 3.61695036 60.625 18.375 C67.41901721 26.92935144 69.77228603 36.10670227 69 47 C67.76825082 56.71322211 63.41939956 66.46692563 56 73 C46.74080865 80.11391932 37.37853575 84.43332406 26 87 C24.98679688 87.24878906 23.97359375 87.49757813 22.9296875 87.75390625 C19.76281213 88.182472 17.99258805 88.15447799 15 87 C11.24234013 83.60919674 8.28807383 79.86372715 5.31542969 75.78369141 C3.30880145 73.06275118 1.15508017 70.479927 -1 67.875 C-1.70125 67.00617188 -2.4025 66.13734375 -3.125 65.2421875 C-4.90789448 63.02719677 -4.90789448 63.02719677 -6.75 61.3203125 C-8 60 -8 60 -8 58 C-7.41992188 58.13277344 -6.83984375 58.26554687 -6.2421875 58.40234375 C-5.46101562 58.57894531 -4.67984375 58.75554687 -3.875 58.9375 C-3.10929688 59.11152344 -2.34359375 59.28554687 -1.5546875 59.46484375 C11.34640732 62.16736667 23.78709336 62.32768404 35.4375 55.625 C38.65113599 53.41765407 40.6836108 51.78461894 42 48 C42.56242596 43.22293898 43.01158732 38.75928229 40.5625 34.5 C33.33815046 30.27111247 25.44314421 29.35662973 17.25 28.5 C-2.48305755 26.21910534 -2.48305755 26.21910534 -8 24 C-9 21 -9 21 -8.14453125 18.90625 C-7.70496094 18.1121875 -7.26539063 17.318125 -6.8125 16.5 C-3.99540861 11.16483809 -1.94100098 5.70372354 0 0 Z " fill="#FAFAFA" transform="translate(179,142)"/>
<path d="M0 0 C8.73739777 -0.11372719 17.47429046 -0.20512868 26.21226597 -0.25906086 C30.27127007 -0.28496774 34.32973425 -0.3200108 38.38842773 -0.37719727 C42.31776539 -0.43220392 46.24658941 -0.46156198 50.17628288 -0.47438622 C51.66278083 -0.4835049 53.1492561 -0.50130477 54.63553047 -0.52865028 C65.06362848 -0.71258526 74.48226675 0.33925032 84 5 C84.495 6.485 84.495 6.485 85 8 C83.63843106 10.37757701 82.24767066 12.57195416 80.6875 14.8125 C77.71637839 19.11534536 75.41695499 22.88800217 74 28 C68.34998464 27.10113392 68.34998464 27.10113392 66.19244385 26.47767639 C63.32604436 25.85316263 60.60469137 25.83510401 57.67089844 25.79467773 C55.74935944 25.7647599 55.74935944 25.7647599 53.78900146 25.73423767 C52.39579386 25.71725591 51.00258501 25.70037701 49.609375 25.68359375 C48.18019017 25.66301206 46.75101127 25.64201527 45.32183838 25.62062073 C41.5670655 25.56552551 37.81223882 25.51606112 34.05737305 25.46777344 C30.22309605 25.41746655 26.3888968 25.36182852 22.5546875 25.30664062 C15.03652245 25.19921261 7.51829193 25.09822672 0 25 C0 16.75 0 8.5 0 0 Z " fill="#FCFCFC" transform="translate(61,86)"/>
</svg>
