<?xml version="1.0" encoding="UTF-8"?>
<svg version="1.1" xmlns="http://www.w3.org/2000/svg" width="400" height="314">
<path d="M0 0 C132 0 264 0 400 0 C400 103.62 400 207.24 400 314 C268 314 136 314 0 314 C0 210.38 0 106.76 0 0 Z " fill="#010101" transform="translate(0,0)"/>
<path d="M0 0 C0.66077545 0.00027191 1.3215509 0.00054382 2.00234985 0.00082397 C11.59456677 0.01909431 20.8951631 0.21086645 30.3125 2.1875 C31.15296875 2.35894531 31.9934375 2.53039062 32.859375 2.70703125 C54.16465057 8.10297523 73.91728072 22.54983871 85.42651367 41.10888672 C90.03633725 48.87404578 92.58042595 56.12237106 93.91796875 65.03515625 C94.09711454 67.16145717 94.09711454 67.16145717 95.3125 68.1875 C95.3125 71.1575 95.3125 74.1275 95.3125 77.1875 C79.8025 77.1875 64.2925 77.1875 48.3125 77.1875 C47.3225 73.8875 46.3325 70.5875 45.3125 67.1875 C41.7921377 61.53854654 38.69976154 58.32749401 32.8515625 55.1953125 C32.34367187 54.86273438 31.83578125 54.53015625 31.3125 54.1875 C31.3125 53.5275 31.3125 52.8675 31.3125 52.1875 C30.36375 52.084375 29.415 51.98125 28.4375 51.875 C25.40549569 51.4582504 22.70441039 50.67887396 19.8125 49.6875 C4.69033287 45.04332462 -13.33069863 46.62919542 -27.6875 53.1875 C-29.9833592 54.68145622 -32.08065574 56.23989435 -34.1640625 58.015625 C-35.6875 59.1875 -35.6875 59.1875 -37.6875 59.1875 C-38.05875 59.9609375 -38.05875 59.9609375 -38.4375 60.75 C-39.48605108 62.79467462 -40.5939373 64.76577602 -41.75 66.75 C-44.1360998 70.98340287 -44.80756592 73.76408 -44.86328125 78.53515625 C-45.40920903 106.46566122 -50.43681471 130.49177494 -71.14892578 150.78271484 C-78.32855618 157.33802955 -86.85584869 162.22258612 -95.6875 166.1875 C-96.3578125 166.50589844 -97.028125 166.82429687 -97.71875 167.15234375 C-101.02481687 168.67229399 -102.96359043 169.1875 -106.6875 169.1875 C-102.30501139 174.63711941 -97.89900633 180.01896925 -93.1875 185.1875 C-89.34680343 189.40629623 -85.72839654 193.76468295 -82.140625 198.19921875 C-79.35298216 201.59499386 -76.49564334 204.92444596 -73.625 208.25 C-69.57776157 212.94285279 -65.65005493 217.70268513 -61.80859375 222.56640625 C-58.68215016 226.42983838 -55.42764604 230.17989178 -52.18188477 233.94311523 C-48.37604728 238.36316511 -44.6638544 242.85038853 -40.9921875 247.3828125 C-39.26754465 249.48161516 -37.52618612 251.55580181 -35.7578125 253.6171875 C-35.25838135 254.20040771 -34.7589502 254.78362793 -34.24438477 255.38452148 C-33.27181161 256.51725699 -32.29590206 257.64713918 -31.31616211 258.77368164 C-29.00668668 261.46590132 -27.19363854 263.98604402 -25.6875 267.1875 C-33.48475694 267.44341847 -41.28101476 267.63833149 -49.08142757 267.75743389 C-52.70464767 267.81463027 -56.32497721 267.89205294 -59.9465332 268.01733398 C-63.44813989 268.13769448 -66.9469857 268.20278649 -70.4505024 268.23114967 C-72.42373585 268.26109491 -74.39587059 268.34684704 -76.36741638 268.4337616 C-81.77056935 268.43743947 -85.26175718 268.41744465 -89.45680237 264.79850769 C-91.73904103 262.0223185 -93.72760144 259.19653453 -95.6875 256.1875 C-96.73910085 254.90686899 -97.80788257 253.63962822 -98.91015625 252.40234375 C-99.38138916 251.85763428 -99.85262207 251.3129248 -100.33813477 250.75170898 C-100.80405029 250.21489502 -101.26996582 249.67808105 -101.75 249.125 C-105.81793792 244.40978798 -109.77141962 239.62901251 -113.6328125 234.7421875 C-116.07938509 231.70025124 -118.59586317 228.72333923 -121.125 225.75 C-125.19487691 220.96366385 -129.20838888 216.13761132 -133.17578125 211.265625 C-136.33360171 207.39569884 -139.51044866 203.54164169 -142.6875 199.6875 C-156.44094986 182.99568767 -156.44094986 182.99568767 -162.6875 175.1875 C-175.5575 174.8575 -188.4275 174.5275 -201.6875 174.1875 C-201.6875 204.8775 -201.6875 235.5675 -201.6875 267.1875 C-216.8675 267.1875 -232.0475 267.1875 -247.6875 267.1875 C-247.6875 221.3175 -247.6875 175.4475 -247.6875 128.1875 C-188.4375 127.875 -188.4375 127.875 -169.78417969 127.79956055 C-164.22792199 127.76296203 -164.22792199 127.76296203 -158.67169189 127.7224884 C-156.21224843 127.7064229 -153.75276327 127.69607799 -151.29327393 127.69038391 C-147.5504351 127.68057713 -143.80813356 127.65216079 -140.06542969 127.61987305 C-138.4438904 127.62201199 -138.4438904 127.62201199 -136.78959274 127.62419415 C-123.97008142 127.46736006 -112.10502658 124.62044763 -102.80859375 115.3046875 C-97.31699752 108.50556835 -93.61231703 99.49842214 -93.51171875 90.76953125 C-93.05946511 67.14323808 -89.69986016 46.01459286 -72.328125 28.7265625 C-71.02101562 27.46972656 -71.02101562 27.46972656 -69.6875 26.1875 C-69.04296875 25.53523438 -68.3984375 24.88296875 -67.734375 24.2109375 C-63.59940493 20.27372687 -58.9069784 17.29186596 -54.0625 14.3125 C-53.42860352 13.91844971 -52.79470703 13.52439941 -52.14160156 13.1184082 C-48.32876736 10.85173508 -45.18721463 9.61670355 -40.6875 9.1875 C-40.6875 8.5275 -40.6875 7.8675 -40.6875 7.1875 C-24.46338698 1.79273358 -24.46338698 1.79273358 -15.6875 1.1875 C-11.18332399 -1.06458801 -4.9428721 -0.00335193 0 0 Z " fill="#FDFDFD" transform="translate(279.6875,15.8125)"/>
<path d="M0 0 C0.95567871 0.16870605 0.95567871 0.16870605 1.93066406 0.34082031 C8.3714768 1.447939 14.82286822 2.41042631 21.296875 3.296875 C93.98524197 13.31148672 93.98524197 13.31148672 118 41 C121 45.37526652 121 45.37526652 121 49 C121.66 49 122.32 49 123 49 C123.63725963 50.59933607 124.25893354 52.20488132 124.875 53.8125 C125.22304688 54.70582031 125.57109375 55.59914062 125.9296875 56.51953125 C131.78401242 75.55677031 131.145324 97.24289776 122.10986328 115.06835938 C110.15166255 137.22759453 88.48247418 151.94325154 65 160 C62.32600737 160.65677012 59.67836667 161.20091154 56.9609375 161.640625 C54.93061495 161.91858678 54.93061495 161.91858678 53 163 C50.37553901 163.38097014 47.77181891 163.58503369 45.125 163.75390625 C42.01440702 163.9363499 42.01440702 163.9363499 39.0625 164.58984375 C35.55412709 165.07970965 33.3980163 165.07866766 30 164 C25.41178182 160.38886466 21.94723353 155.57240432 18.46044922 150.93603516 C16.50974983 148.350103 14.44515079 145.86582314 12.375 143.375 C11.67117188 142.50617188 10.96734375 141.63734375 10.2421875 140.7421875 C7.69745618 137.62998996 5.10350976 134.56300546 2.5 131.5 C-1.02016925 127.34986688 -4.52941491 123.19174563 -8 119 C-8.70125 118.154375 -9.4025 117.30875 -10.125 116.4375 C-11.96212867 114.04923272 -13.50629183 111.6139893 -15 109 C-10.99469795 109.42609596 -7.43318192 110.11233301 -3.625 111.4375 C15.28406784 118.00759984 40.30726842 119.5251981 58.87597656 111.15429688 C67.58232982 106.75205062 74.14630359 101.13665354 78.875 92.625 C81.27720207 84.88457109 82.07548348 76.68205181 79 69 C77.03909244 66.32497088 74.81691876 64.71801089 72 63 C71.29617188 62.56042969 70.59234375 62.12085938 69.8671875 61.66796875 C55.50277006 54.02388166 37.07092963 53.7145967 21.2199707 52.14404297 C14.14790534 51.41692132 7.20654167 50.47382576 0.25 49 C-0.48114014 48.84595703 -1.21228027 48.69191406 -1.96557617 48.53320312 C-6.82972227 47.43313583 -11.36200824 45.8302389 -16 44 C-14.73022681 40.56378914 -13.22847539 37.71934472 -11.1875 34.6875 C-4.86156306 24.31913506 -2.51805271 11.74674996 0 0 Z " fill="#FCFCFC" transform="translate(252,121)"/>
<path d="M0 0 C15.66503662 -0.0452928 31.33002063 -0.08207367 46.99510384 -0.10362434 C54.27003462 -0.11390037 61.54492158 -0.12788968 68.81982422 -0.15087891 C75.16679665 -0.1709261 81.51373732 -0.18374307 87.86074054 -0.18817699 C91.21584529 -0.19076538 94.57078781 -0.19784981 97.92587662 -0.21146011 C120.91424761 -0.30095538 140.34877536 0.83717587 161 12 C159.54189138 15.25496975 157.68972832 17.67294662 155.375 20.375 C147.38224453 30.25352355 142.13016441 41.04635107 138 53 C137.45472656 52.80664062 136.90945312 52.61328125 136.34765625 52.4140625 C135.59355469 52.15367188 134.83945313 51.89328125 134.0625 51.625 C133.33160156 51.36976562 132.60070312 51.11453125 131.84765625 50.8515625 C123.79562967 48.44368624 116.36639673 47.6978112 107.96264648 47.68115234 C106.79090378 47.67110672 105.61916107 47.6610611 104.41191101 47.65071106 C100.5649766 47.61998711 96.71811145 47.60287375 92.87109375 47.5859375 C90.19351712 47.56721717 87.51595675 47.54773795 84.83839417 47.5272522 C78.52760189 47.48062462 72.21679275 47.44380347 65.90591723 47.41057932 C58.71594784 47.3722441 51.52606725 47.32286415 44.33617294 47.27259517 C29.55751284 47.16951388 14.77879555 47.0816343 0 47 C0 31.49 0 15.98 0 0 Z " fill="#FDFDFD" transform="translate(32,18)"/>
</svg>
